<?xml version="1.0" encoding="utf-8"?>
<!-- Generator: Adobe Illustrator 27.5.0, SVG Export Plug-In . SVG Version: 6.00 Build 0)  -->
<svg version="1.1" xmlns="http://www.w3.org/2000/svg" xmlns:xlink="http://www.w3.org/1999/xlink" x="0px" y="0px"
	 viewBox="0 0 750 500" style="enable-background:new 0 0 750 500;" xml:space="preserve">
<g id="BACKGROUND">
	<g>
		<g>
			<g>
				<rect y="-0.005" style="fill:#FFFFFF;" width="750" height="500"/>
			</g>
		</g>
	</g>
</g>
<g id="OBJECTS">
	<g>
		<g>
			<g>
				<path style="fill:#E4F2FF;" d="M144.759,454.577c0,0-100.407-19.859-105.526-90.02c-5.892-80.752,75.14-81.643,62.71-140.176
					c-17.35-81.699,16.579-130.362,92.6-127.006c64.102,2.83,118.177,53.033,152.471,9.876
					c36.985-46.544,106.169-80.934,174.633-52.106c68.464,28.828,58.377,122.507,105.726,142.412
					c47.349,19.905,98.624,72.406,90.366,145.032c-7.747,68.137-70.584,113.407-128.811,112.721
					c-28.534-0.336-139.282,0.376-238.809,0C246.55,454.918,144.759,454.577,144.759,454.577z"/>
				<path style="fill:#E4F2FF;" d="M643.911,183.43c0,0-18.557-35.77,13.115-52.992c34.096-18.54,60.234,15.902,52.186,44.26
					C701.163,203.057,653.79,201.798,643.911,183.43z"/>
				<path style="fill:#E4F2FF;" d="M57.533,209.833c0,0-15.711-11.787-4.386-27.43c11.325-15.643,38.551-7.651,34.201,11.208
					C85.365,202.206,74.263,221.057,57.533,209.833z"/>
			</g>
			<g>
				<g>
					<g>
						<g>
							<path style="fill:none;stroke:#92CDFE;stroke-miterlimit:10;" d="M579.268,454.875c-8.251,0.58-41.569,1.113-35.67-27.107
								c3.013-14.412-4.654-16.003-12.065-23.267c-7.411-7.265-6.523-10.852-4.257-18.807c2.266-7.956-7.94-5.237-9.913-17.211
								c-1.972-11.974,5.496-21.99,18.422-21.926c12.925,0.065,10.026,13.474,14.237,18.426c4.211,4.952,10.735,0.391,15.049,12.192
								c4.314,11.802-1.974,18.852,6.296,23.464c1.479,0.825,3.049,1.981,4.637,3.379"/>
							<g>
								<g>
									<g>
										<path style="fill:#92CDFE;" d="M565.401,422.779c-6.391-13.001-13.155-25.818-20.256-38.445
											c-2.401-4.27-4.843-8.518-7.32-12.744c-0.488-0.832-1.785-0.078-1.295,0.757c7.971,13.597,15.555,27.42,22.709,41.464
											c1.646,3.23,3.268,6.472,4.867,9.725C564.531,424.402,565.825,423.643,565.401,422.779L565.401,422.779z"/>
									</g>
								</g>
								<g>
									<g>
										<path style="fill:#92CDFE;" d="M532.399,395.75c5.491,0.57,10.981,1.139,16.472,1.709c0.79,0.082,1.581,0.164,2.371,0.246
											c0.959,0.1,0.952-1.401,0-1.5c-5.491-0.569-10.981-1.139-16.472-1.708c-0.79-0.082-1.581-0.164-2.371-0.246
											C531.44,394.15,531.447,395.651,532.399,395.75L532.399,395.75z"/>
									</g>
								</g>
							</g>
							<g>
								<path style="fill:none;stroke:#92CDFE;stroke-miterlimit:10;" d="M538.983,386.199c0,1.364-1.276,2.469-2.849,2.469
									c-1.573,0-2.849-1.105-2.849-2.469c0-1.363,1.276-2.469,2.849-2.469C537.708,383.73,538.983,384.836,538.983,386.199z"/>
								<path style="fill:none;stroke:#92CDFE;stroke-miterlimit:10;" d="M545.331,364.005c-0.787,1.363-2.529,1.829-3.892,1.043
									c-1.363-0.787-1.829-2.529-1.043-3.892c0.787-1.363,2.529-1.83,3.892-1.043C545.65,360.9,546.117,362.642,545.331,364.005z"
									/>
								<path style="fill:none;stroke:#92CDFE;stroke-miterlimit:10;" d="M556.802,428.65c0,1.699-1.59,3.077-3.551,3.077
									c-1.961,0-3.551-1.378-3.551-3.077c0-1.7,1.59-3.077,3.551-3.077C555.212,425.572,556.802,426.95,556.802,428.65z"/>
								<path style="fill:none;stroke:#92CDFE;stroke-miterlimit:10;" d="M540.247,356.709c0,0.699-0.567,1.266-1.266,1.266
									c-0.7,0-1.266-0.567-1.266-1.266c0-0.699,0.567-1.266,1.266-1.266C539.68,355.443,540.247,356.01,540.247,356.709z"/>
							</g>
						</g>
						<g>
							<path style="fill:none;stroke:#92CDFE;stroke-miterlimit:10;" d="M627.807,452.136c-6.831-4.871-7.504-35.764,20.494-42.017
								c14.299-3.194,12.008-10.351,14.897-19.558c2.889-9.207,6.515-9.885,14.7-11.134c8.185-1.25,2.039-12.406,11.755-18.867
								c9.715-6.461,22.756-6.957,27.614,7.164c4.113,11.956-7.538,17.222-9.914,22.783c-2.376,5.56,4.536,13.066-3.893,21.451
								c-8.429,8.384-17.446,2.073-17.556,10.952c-0.11,8.879-4.056,25.057-12.615,28.385
								C662.702,455.412,633.199,455.981,627.807,452.136z"/>
							<g>
								<g>
									<path style="fill:#92CDFE;" d="M637.328,455.66c3.797-4.531,7.741-8.944,11.546-13.47
										c9.406-11.187,18.591-22.559,27.562-34.097c6.497-8.356,12.878-16.802,19.127-25.345c0.571-0.78-0.73-1.529-1.295-0.757
										c-10.53,14.395-21.432,28.517-32.646,42.386c-7.014,8.675-14.144,17.259-21.43,25.708
										c-1.302,1.509-2.644,2.987-3.924,4.514C635.651,455.334,636.707,456.401,637.328,455.66L637.328,455.66z"/>
								</g>
							</g>
						</g>
						<g>
							<path style="fill:none;stroke:#92CDFE;stroke-miterlimit:10;" d="M646.836,410.476c-0.63-5.17-1.446-10.235-1.912-14.945
								c-1.893-19.148,24.497-10.589,35.008-35.16c10.512-24.572-15.221-33.501-3.119-43.783
								c12.102-10.282,15.48-45.613-2.247-51.689c-22.981-7.877-43.636,6.531-46.443,25.509
								c-2.166,14.639,7.649,24.862-17.894,35.593c-25.543,10.731-21.597,24.056-16.35,49.542
								c5.247,25.486-12.015,16.142-25.43,37.655c-10.63,17.048,4.309,34.435,10.97,40.92l51.701,0.888"/>
							<g>
								<g>
									<g>
										<path style="fill:#92CDFE;" d="M589.961,454.122c2.108-4.864,4.224-9.725,6.342-14.585
											c5.198-11.929,10.415-23.85,15.651-35.762c6.672-15.179,13.376-30.345,20.132-45.487
											c6.523-14.619,13.087-29.221,19.783-43.761c4.732-10.275,9.444-20.584,14.635-30.638c0.394-0.764,0.793-1.525,1.199-2.283
											c0.456-0.851-0.839-1.609-1.295-0.757c-4.95,9.239-9.303,18.816-13.709,28.321c-6.586,14.209-13.022,28.487-19.416,42.783
											c-6.832,15.273-13.605,30.572-20.345,45.886c-5.503,12.503-10.984,25.015-16.445,37.537
											c-2.576,5.906-5.305,11.773-7.721,17.747c-0.033,0.082-0.07,0.163-0.106,0.244
											C588.286,454.241,589.578,455.006,589.961,454.122L589.961,454.122z"/>
									</g>
								</g>
								<g>
									<g>
										<g>
											<path style="fill:#92CDFE;" d="M637.062,346.483c10.122-0.56,20.243-1.12,30.365-1.68
												c1.433-0.079,2.866-0.159,4.298-0.238c0.96-0.053,0.966-1.553,0-1.5c-10.122,0.56-20.243,1.12-30.365,1.68
												c-1.433,0.079-2.866,0.158-4.298,0.238C636.102,345.036,636.096,346.536,637.062,346.483L637.062,346.483z"/>
										</g>
									</g>
									<g>
										<g>
											<path style="fill:#92CDFE;" d="M602.063,425.432c7.985-0.898,15.969-1.796,23.954-2.694
												c1.128-0.127,2.256-0.254,3.384-0.381c0.948-0.107,0.959-1.608,0-1.5c-7.985,0.898-15.969,1.796-23.954,2.694
												c-1.128,0.127-2.256,0.254-3.384,0.381C601.114,424.039,601.103,425.54,602.063,425.432L602.063,425.432z"/>
										</g>
									</g>
								</g>
								<g>
									<g>
										<path style="fill:#92CDFE;" d="M598.806,338.739c2.296,5.154,4.592,10.307,6.888,15.461
											c3.657,8.209,7.314,16.418,10.971,24.627c0.836,1.877,1.672,3.754,2.508,5.63c0.392,0.88,1.685,0.118,1.295-0.757
											c-2.296-5.154-4.592-10.307-6.888-15.461c-3.657-8.209-7.314-16.418-10.971-24.627c-0.836-1.877-1.672-3.754-2.508-5.63
											C599.709,337.102,598.416,337.864,598.806,338.739L598.806,338.739z"/>
									</g>
								</g>
							</g>
							<path style="fill:none;stroke:#92CDFE;stroke-miterlimit:10;" d="M648.828,286.213c-1.695,2.49-4.647,3.436-6.592,2.111
								c-1.946-1.324-2.149-4.417-0.454-6.907c1.695-2.49,4.647-3.436,6.592-2.111C650.32,280.631,650.523,283.723,648.828,286.213z
								"/>
							<path style="fill:none;stroke:#92CDFE;stroke-miterlimit:10;" d="M650.072,299.677c0,1.316-1.067,2.383-2.383,2.383
								c-1.316,0-2.383-1.067-2.383-2.383c0-1.316,1.067-2.383,2.383-2.383C649.005,297.294,650.072,298.361,650.072,299.677z"/>
							<path style="fill:none;stroke:#92CDFE;stroke-miterlimit:10;" d="M667.351,361.145c0,2.557-2.073,4.631-4.631,4.631
								c-2.558,0-4.631-2.073-4.631-4.631c0-2.557,2.073-4.631,4.631-4.631C665.277,356.514,667.351,358.588,667.351,361.145z"/>
						</g>
					</g>
					<g>
						<g>
							<path style="fill:none;stroke:#92CDFE;stroke-miterlimit:10;" d="M328.395,455.001c1.316-4.742,1.353-10.022,1.942-14.505
								c1.275-9.699,15.309-1.711,24.345-12.307c9.035-10.596-4.578-18.672,3.608-22.005c8.185-3.333,13.75-18.559,5.08-25.773
								c-10.72-8.919-25.752-3.023-29.694,5.921c-3.041,6.898,1.312,13.336-14.613,14.967c-15.925,1.632-15.309,8.758-15.448,22.057
								c-0.138,13.299-8.857,6.23-19.176,14.905c-5.848,4.916-4.24,11.788-1.749,16.82"/>
						</g>
						<g>
							<g>
								<g>
									<path style="fill:#92CDFE;" d="M296.902,455.953c7.81-9.025,15.645-18.029,23.516-27.002
										c8.965-10.221,17.951-20.428,27.128-30.458c3.281-3.586,6.556-7.202,10.048-10.586c0.694-0.673-0.367-1.733-1.061-1.061
										c-7.431,7.203-14.219,15.13-21.1,22.848c-9.34,10.475-18.586,21.033-27.802,31.617c-3.937,4.521-7.867,9.048-11.789,13.582
										C295.213,455.62,296.269,456.685,296.902,455.953L296.902,455.953z"/>
								</g>
							</g>
							<g>
								<g>
									<g>
										<path style="fill:#92CDFE;" d="M331.774,415.574c5.841,1.168,11.682,2.337,17.523,3.505
											c0.844,0.169,1.687,0.338,2.531,0.506c0.943,0.189,1.346-1.257,0.399-1.446c-5.841-1.168-11.682-2.337-17.523-3.505
											c-0.844-0.169-1.687-0.337-2.531-0.506C331.23,413.939,330.826,415.385,331.774,415.574L331.774,415.574z"/>
									</g>
								</g>
							</g>
							<g>
								<g>
									<path style="fill:#92CDFE;" d="M310.655,406.043c1.751,7.399,3.501,14.798,5.252,22.196
										c0.254,1.076,0.509,2.151,0.763,3.227c0.222,0.939,1.669,0.542,1.446-0.399c-1.751-7.399-3.501-14.798-5.252-22.196
										c-0.254-1.076-0.509-2.151-0.763-3.227C311.879,404.706,310.433,405.103,310.655,406.043L310.655,406.043z"/>
								</g>
							</g>
						</g>
						<path style="fill:none;stroke:#92CDFE;stroke-miterlimit:10;" d="M346.029,387.226c-1.276,0.984-3.08,1.027-4.029,0.097
							c-0.949-0.93-0.685-2.482,0.591-3.466c1.276-0.984,3.079-1.027,4.029-0.097C347.569,384.691,347.304,386.242,346.029,387.226z
							"/>
						<path style="fill:none;stroke:#92CDFE;stroke-miterlimit:10;" d="M347.392,426.771c-0.315,1.259-1.755,1.984-3.218,1.618
							c-1.462-0.366-2.392-1.683-2.077-2.942c0.315-1.259,1.755-1.984,3.218-1.618C346.777,424.194,347.707,425.511,347.392,426.771
							z"/>
					</g>
					<g>
						<g>
							<g>
								<path style="fill:none;stroke:#92CDFE;stroke-miterlimit:10;" d="M85.831,454.063c-5.503,1.441-30.39,5.572-29.992-14.254
									c0.203-10.125-2.748-9.758-8.682-13.725c-5.933-3.968-5.789-6.506-5.269-12.172c0.52-5.666-5.128-2.922-8.889-10.373
									c-4.5-8.913,0.918-15.563,9.663-17.164c8.745-1.6,8.491,7.832,11.967,10.644c3.476,2.812,8.281-3.234,14.96,4.963
									c4.36,5.352-2.409,17.562,4.004,16.424"/>
							</g>
							<g>
								<g>
									<g>
										<path style="fill:#92CDFE;" d="M74.361,436.413c-8.544-11.545-17.568-22.732-26.995-33.567
											c-0.635-0.73-1.692,0.335-1.061,1.061c9.344,10.738,18.293,21.821,26.761,33.264
											C73.634,437.938,74.936,437.191,74.361,436.413L74.361,436.413z"/>
									</g>
								</g>
								<g>
									<g>
										<path style="fill:#92CDFE;" d="M59.85,402.323c-0.315,4.718-0.631,9.436-0.946,14.154
											c-0.045,0.666-0.089,1.333-0.134,1.999c0.25-0.25,0.5-0.5,0.75-0.75c-4.328,0.359-8.657,0.717-12.986,1.076
											c-0.955,0.079-0.964,1.58,0,1.5c4.329-0.358,8.657-0.717,12.986-1.076c0.425-0.035,0.721-0.316,0.75-0.75
											c0.315-4.718,0.631-9.436,0.946-14.154c0.044-0.666,0.089-1.333,0.134-1.999C61.414,401.36,59.914,401.364,59.85,402.323
											L59.85,402.323z"/>
									</g>
								</g>
							</g>
						</g>
						<g>
							<g>
								<path style="fill:none;stroke:#92CDFE;stroke-miterlimit:10;" d="M46.965,336.818c-10.855-8.842-13.45-36.155,2.015-44.448
									c19.122-10.254,39.14,5.616,41.658,21.935c1.943,12.588-6.861,21.379,16.05,30.606
									c22.911,9.228,19.371,20.687,14.665,42.602c-4.707,21.916,10.777,13.881,22.81,32.38
									c9.535,14.659-3.865,29.611-9.839,35.187l-46.863-0.228c-1.518-0.895-2.973-1.893-4.341-3.011
									c-15.135-12.37-9.122-31.917-7.552-47.139c1.698-16.465-21.973-9.105-31.401-30.234
									C34.738,353.339,57.82,345.66,46.965,336.818z"/>
							</g>
							<g>
								<g>
									<g>
										<path style="fill:#92CDFE;" d="M126.097,454.381c-1.884-4.168-3.775-8.332-5.668-12.496
											c-4.661-10.254-9.338-20.5-14.033-30.739c-5.987-13.057-12-26.101-18.061-39.124
											c-5.871-12.615-11.779-25.215-17.805-37.757c-4.234-8.813-8.452-17.657-13.089-26.268
											c-0.354-0.658-0.712-1.313-1.077-1.965c-0.471-0.843-1.767-0.087-1.295,0.757c4.422,7.913,8.321,16.134,12.266,24.291
											c5.906,12.215,11.68,24.494,17.417,36.789c6.13,13.137,12.208,26.299,18.257,39.474
											c4.952,10.785,9.884,21.58,14.799,32.382c1.565,3.441,3.129,6.883,4.69,10.326c0.727,1.604,1.348,3.339,2.209,4.877
											c0.037,0.066,0.064,0.141,0.095,0.21C125.199,456.017,126.492,455.255,126.097,454.381L126.097,454.381z"/>
									</g>
								</g>
								<g>
									<g>
										<g>
											<path style="fill:#92CDFE;" d="M82.62,361.13c-9.088-0.482-18.175-0.964-27.263-1.446
												c-1.276-0.068-2.552-0.135-3.828-0.203c-0.965-0.051-0.962,1.449,0,1.5c9.088,0.482,18.175,0.964,27.263,1.446
												c1.276,0.068,2.552,0.135,3.828,0.203C83.585,362.681,83.582,361.181,82.62,361.13L82.62,361.13z"/>
										</g>
									</g>
									<g>
										<g>
											<path style="fill:#92CDFE;" d="M114.014,429.02c-10.19-1.099-20.381-2.198-30.571-3.297
												c-1.465-0.158-2.929-0.316-4.394-0.474c-0.959-0.103-0.951,1.397,0,1.5c10.19,1.099,20.381,2.198,30.571,3.297
												c1.465,0.158,2.929,0.316,4.394,0.474C114.972,430.624,114.965,429.123,114.014,429.02L114.014,429.02z"/>
										</g>
									</g>
								</g>
								<g>
									<g>
										<path style="fill:#92CDFE;" d="M115.707,355.162c-2.063,4.44-4.126,8.88-6.19,13.32c-3.27,7.037-6.54,14.073-9.81,21.11
											c-0.757,1.628-1.513,3.256-2.269,4.884c-0.404,0.87,0.888,1.633,1.295,0.757c2.063-4.44,4.126-8.88,6.19-13.32
											c3.27-7.037,6.54-14.073,9.81-21.11c0.757-1.628,1.513-3.256,2.27-4.884C117.406,355.049,116.114,354.287,115.707,355.162
											L115.707,355.162z"/>
									</g>
								</g>
							</g>
							<path style="fill:none;stroke:#92CDFE;stroke-miterlimit:10;" d="M80.979,335.441c1.521,2.141,4.168,2.954,5.913,1.816
								c1.745-1.139,1.927-3.798,0.407-5.939c-1.52-2.141-4.168-2.954-5.913-1.815C79.64,330.64,79.458,333.3,80.979,335.441z"/>
							<path style="fill:none;stroke:#92CDFE;stroke-miterlimit:10;" d="M70.951,322.276c0,1.132,0.957,2.049,2.138,2.049
								c1.181,0,2.138-0.918,2.138-2.049c0-1.132-0.957-2.049-2.138-2.049C71.908,320.227,70.951,321.145,70.951,322.276z"/>
							<path style="fill:none;stroke:#92CDFE;stroke-miterlimit:10;" d="M78.415,315.175c0,1.896,1.603,3.433,3.581,3.433
								c1.978,0,3.581-1.537,3.581-3.433c0-1.896-1.603-3.433-3.581-3.433C80.019,311.742,78.415,313.279,78.415,315.175z"/>
							<path style="fill:none;stroke:#92CDFE;stroke-miterlimit:10;" d="M55.452,375.134c0,2.199,1.86,3.982,4.154,3.982
								c2.294,0,4.154-1.783,4.154-3.982c0-2.199-1.86-3.982-4.154-3.982C57.312,371.152,55.452,372.935,55.452,375.134z"/>
						</g>
						<g>
							<g>
								<path style="fill:none;stroke:#92CDFE;stroke-miterlimit:10;" d="M153.453,454.927c0.938-0.553,1.837-1.17,2.683-1.861
									c9.354-7.645,5.638-19.725,4.667-29.133c-1.05-10.176,13.58-5.627,19.407-18.686c5.827-13.059-8.438-17.804-1.729-23.269
									c6.709-5.464,8.313-22.345-1.245-27.47c-11.818-6.337-24.19,3.471-25.746,13.556c-1.201,7.78,4.24,13.213-9.919,18.916
									c-4.862,1.958-7.797,4.079-9.437,6.569"/>
							</g>
							<g>
								<g>
									<g>
										<path style="fill:#92CDFE;" d="M145.81,421.97c7.736-16.815,15.44-33.665,23.681-50.241
											c1.364-2.743,2.735-5.488,4.228-8.164c0.471-0.844-0.824-1.601-1.295-0.757c-3.111,5.577-5.837,11.382-8.603,17.134
											c-4.13,8.589-8.17,17.222-12.185,25.865c-2.384,5.131-4.756,10.267-7.12,15.406
											C144.114,422.084,145.407,422.847,145.81,421.97L145.81,421.97z"/>
									</g>
								</g>
								<g>
									<g>
										<g>
											<path style="fill:#92CDFE;" d="M156.445,398.218c5.599-0.297,11.198-0.594,16.797-0.891
												c0.806-0.043,1.612-0.086,2.418-0.128c0.96-0.051,0.966-1.551,0-1.5c-5.599,0.297-11.198,0.594-16.798,0.891
												c-0.806,0.043-1.612,0.085-2.418,0.128C155.485,396.769,155.479,398.269,156.445,398.218L156.445,398.218z"/>
										</g>
									</g>
									<g>
										<g>
											<path style="fill:#92CDFE;" d="M146.065,439.203c3.668-0.396,7.335-0.791,11.003-1.186
												c0.528-0.057,1.056-0.114,1.584-0.171c0.95-0.102,0.96-1.604,0-1.5c-3.668,0.395-7.335,0.791-11.003,1.186
												c-0.528,0.057-1.056,0.114-1.584,0.171C145.116,437.805,145.105,439.306,146.065,439.203L146.065,439.203z"/>
										</g>
									</g>
								</g>
								<g>
									<g>
										<path style="fill:#92CDFE;" d="M134.949,393.928c3.298,7.096,6.595,14.193,9.893,21.289
											c0.466,1.003,0.932,2.005,1.398,3.008c0.406,0.875,1.7,0.114,1.295-0.757c-3.298-7.096-6.595-14.193-9.893-21.289
											c-0.466-1.003-0.932-2.005-1.398-3.008C135.838,392.297,134.544,393.058,134.949,393.928L134.949,393.928z"/>
									</g>
								</g>
							</g>
							<path style="fill:none;stroke:#92CDFE;stroke-miterlimit:10;" d="M162.967,365.836c-0.94,1.323-2.576,1.826-3.654,1.122
								c-1.078-0.704-1.191-2.347-0.251-3.671c0.94-1.323,2.576-1.826,3.654-1.122C163.794,362.87,163.907,364.513,162.967,365.836z
								"/>
							<path style="fill:none;stroke:#92CDFE;stroke-miterlimit:10;" d="M173.235,405.659c0,1.359-1.149,2.461-2.567,2.461
								c-1.418,0-2.567-1.102-2.567-2.461c0-1.359,1.149-2.461,2.567-2.461C172.086,403.198,173.235,404.3,173.235,405.659z"/>
						</g>
					</g>
				</g>
				<g>
					<g>
						<g>
							<rect x="295.748" y="184.858" style="fill:#92CDFE;" width="27.911" height="79.202"/>
							<rect x="335.325" y="150.291" style="fill:#92CDFE;" width="27.911" height="113.768"/>
							<rect x="374.902" y="173.625" style="fill:#92CDFE;" width="27.911" height="90.435"/>
							<rect x="414.479" y="193.681" style="fill:#92CDFE;" width="27.911" height="70.379"/>
							<rect x="454.056" y="148.392" style="fill:#92CDFE;" width="27.911" height="115.668"/>
							<rect x="493.633" y="181.331" style="fill:#92CDFE;" width="27.911" height="82.728"/>
						</g>
						<g>
							<path style="fill:none;stroke:#92CDFE;stroke-width:8;stroke-linecap:round;stroke-miterlimit:10;" d="M375.887,134.753
								c0,0,77.284,4.111,128.87-44.414"/>
							<polygon style="fill:#92CDFE;" points="489.85,89.219 504.005,104.116 515.887,81.229 							"/>
						</g>
						<g>
							
								<line style="fill:none;stroke:#92CDFE;stroke-linecap:round;stroke-miterlimit:10;" x1="283.669" y1="97.69" x2="382.882" y2="97.69"/>
							
								<line style="fill:none;stroke:#92CDFE;stroke-linecap:round;stroke-miterlimit:10;" x1="283.669" y1="107.004" x2="382.882" y2="107.004"/>
							
								<line style="fill:none;stroke:#92CDFE;stroke-linecap:round;stroke-miterlimit:10;" x1="283.669" y1="116.319" x2="351.415" y2="116.319"/>
						</g>
					</g>
					<rect x="252.901" y="66.378" style="fill:none;stroke:#92CDFE;stroke-miterlimit:10;" width="299.411" height="222.261"/>
				</g>
				<g>
					<g>
						<g>
							<path style="fill:#FFFFFF;stroke:#92CDFE;stroke-miterlimit:10;" d="M228.089,143.631h-33.36
								c-4.262,0-7.717,3.284-7.717,7.335v12.945v4.527v14.183l7.846-6.847h33.23c4.262,0,7.717-3.284,7.717-7.335v-17.472
								C235.807,146.915,232.351,143.631,228.089,143.631z"/>
						</g>
						
							<text transform="matrix(0.9999 0.0112 -0.0112 0.9999 203.7978 170.6086)" style="fill:none;stroke:#92CDFE;stroke-miterlimit:10; font-family:'Quicksand-Bold'; font-size:32.2433px;">?</text>
					</g>
					<g>
						<g>
							<path style="fill:#FFFFFF;stroke:#92CDFE;stroke-miterlimit:10;" d="M429.995,155.023h-31.342
								c-4.004,0-7.251,3.085-7.251,6.892v12.162v4.254v13.325l7.372-6.433h31.221c4.004,0,7.251-3.085,7.251-6.892v-16.416
								C437.245,158.108,433.999,155.023,429.995,155.023z"/>
						</g>
						<g>
							<circle style="fill:#92CDFE;" cx="426.389" cy="170.07" r="2.651"/>
							<circle style="fill:#92CDFE;" cx="415.698" cy="170.07" r="2.651"/>
							<circle style="fill:#92CDFE;" cx="405.008" cy="170.07" r="2.651"/>
						</g>
					</g>
				</g>
				<g>
					<path style="fill-rule:evenodd;clip-rule:evenodd;fill:#92CDFE;" d="M694.663,183.578c1.337,0.697,2.559,1.563,3.641,2.565
						l3.89-1.385l3.656,5.771l-2.913,2.926c0.443,1.406,0.706,2.88,0.764,4.388l3.729,1.771l-1.496,6.666l-4.127,0.009
						c-0.697,1.339-1.564,2.559-2.565,3.641l1.385,3.89l-5.77,3.656l-2.927-2.913c-1.406,0.443-2.88,0.705-4.388,0.763l-1.77,3.729
						l-6.667-1.495l-0.009-4.128c-1.339-0.697-2.559-1.563-3.641-2.565l-3.891,1.385l-3.656-5.771l2.914-2.926
						c-0.444-1.406-0.705-2.879-0.764-4.387l-3.728-1.771l1.495-6.666l4.127-0.009c0.696-1.339,1.563-2.56,2.565-3.641l-1.385-3.89
						l5.77-3.656l2.926,2.914c1.406-0.444,2.879-0.705,4.388-0.764l1.77-3.728l6.666,1.495L694.663,183.578L694.663,183.578z
						 M688.786,191.422c-3.949-0.886-7.869,1.597-8.755,5.547c-0.886,3.949,1.598,7.869,5.547,8.755
						c3.95,0.886,7.869-1.598,8.755-5.547C695.219,196.227,692.736,192.308,688.786,191.422z"/>
					<path style="fill-rule:evenodd;clip-rule:evenodd;fill:#92CDFE;" d="M74.913,210.908c1.225,0.639,2.344,1.432,3.335,2.349
						l3.564-1.269l3.349,5.287l-2.669,2.681c0.406,1.288,0.647,2.638,0.7,4.02l3.416,1.622l-1.37,6.107l-3.781,0.008
						c-0.638,1.226-1.432,2.345-2.35,3.336l1.269,3.564l-5.286,3.349l-2.681-2.669c-1.288,0.406-2.638,0.646-4.02,0.699
						l-1.622,3.416l-6.107-1.369l-0.008-3.782c-1.226-0.638-2.344-1.432-3.335-2.35l-3.564,1.269l-3.349-5.287l2.67-2.681
						c-0.406-1.288-0.646-2.638-0.7-4.02l-3.415-1.622l1.37-6.107l3.781-0.008c0.638-1.226,1.432-2.345,2.35-3.336l-1.269-3.564
						l5.286-3.349l2.681,2.669c1.288-0.406,2.638-0.646,4.02-0.7l1.622-3.416l6.107,1.37L74.913,210.908L74.913,210.908z
						 M69.529,218.094c-3.618-0.811-7.209,1.463-8.021,5.082c-0.812,3.618,1.464,7.209,5.082,8.021
						c3.618,0.811,7.209-1.464,8.021-5.082C75.422,222.496,73.147,218.905,69.529,218.094z"/>
					<path style="fill-rule:evenodd;clip-rule:evenodd;fill:none;stroke:#92CDFE;stroke-miterlimit:10;" d="M121.615,115.559
						c1.697,0.884,3.246,1.983,4.618,3.253l4.934-1.757l4.638,7.32l-3.695,3.712c0.563,1.783,0.895,3.653,0.969,5.566l4.73,2.246
						l-1.897,8.455l-5.235,0.012c-0.883,1.698-1.983,3.246-3.254,4.618l1.757,4.935l-7.319,4.638l-3.712-3.695
						c-1.783,0.563-3.653,0.894-5.566,0.968l-2.246,4.73l-8.456-1.896l-0.011-5.236c-1.698-0.883-3.246-1.983-4.618-3.253
						l-4.935,1.757l-4.638-7.32l3.697-3.712c-0.563-1.783-0.894-3.653-0.969-5.566l-4.729-2.246l1.896-8.456l5.235-0.011
						c0.883-1.698,1.983-3.247,3.254-4.619l-1.757-4.935l7.319-4.638l3.712,3.696c1.783-0.563,3.652-0.895,5.566-0.969l2.246-4.729
						l8.455,1.897L121.615,115.559L121.615,115.559z M114.16,125.509c-5.009-1.123-9.982,2.026-11.105,7.036
						c-1.124,5.01,2.027,9.981,7.036,11.105c5.01,1.124,9.982-2.027,11.105-7.036C122.319,131.604,119.17,126.632,114.16,125.509z"
						/>
					<path style="fill-rule:evenodd;clip-rule:evenodd;fill:none;stroke:#92CDFE;stroke-miterlimit:10;" d="M235.649,203.674
						c0.928,0.484,1.775,1.085,2.525,1.779l2.699-0.961l2.536,4.003l-2.021,2.03c0.308,0.975,0.49,1.998,0.53,3.044l2.587,1.229
						l-1.038,4.624l-2.863,0.006c-0.483,0.929-1.085,1.775-1.78,2.526l0.961,2.699l-4.003,2.536l-2.03-2.021
						c-0.975,0.308-1.998,0.489-3.044,0.53l-1.228,2.587l-4.625-1.037l-0.006-2.864c-0.929-0.483-1.775-1.084-2.526-1.779
						l-2.699,0.961l-2.536-4.003l2.022-2.03c-0.308-0.975-0.489-1.998-0.53-3.044l-2.586-1.228l1.037-4.624l2.863-0.006
						c0.483-0.929,1.085-1.776,1.78-2.526l-0.961-2.699l4.003-2.536l2.03,2.021c0.975-0.308,1.998-0.489,3.044-0.53l1.228-2.587
						l4.624,1.037L235.649,203.674L235.649,203.674z M231.572,209.116c-2.74-0.614-5.459,1.108-6.074,3.848
						c-0.615,2.74,1.109,5.459,3.848,6.074c2.74,0.615,5.459-1.108,6.074-3.848C236.034,212.449,234.311,209.73,231.572,209.116z"/>
					<path style="fill-rule:evenodd;clip-rule:evenodd;fill:none;stroke:#92CDFE;stroke-miterlimit:10;" d="M635.519,83.138
						c1.123,0.585,2.148,1.312,3.056,2.153l3.266-1.162l3.069,4.845l-2.446,2.456c0.372,1.18,0.592,2.418,0.642,3.684l3.13,1.487
						l-1.256,5.596l-3.465,0.008c-0.585,1.124-1.313,2.148-2.154,3.057l1.163,3.266l-4.844,3.069l-2.457-2.446
						c-1.18,0.372-2.417,0.592-3.684,0.641l-1.486,3.13l-5.597-1.255l-0.007-3.465c-1.124-0.585-2.148-1.312-3.056-2.153
						l-3.266,1.163l-3.069-4.845l2.447-2.457c-0.372-1.18-0.592-2.417-0.642-3.683l-3.13-1.487l1.255-5.596l3.465-0.007
						c0.585-1.124,1.313-2.149,2.154-3.057l-1.163-3.266l4.844-3.069l2.457,2.446c1.18-0.372,2.417-0.592,3.684-0.641l1.486-3.13
						l5.596,1.255L635.519,83.138L635.519,83.138z M630.585,89.723c-3.315-0.744-6.606,1.341-7.35,4.657
						c-0.744,3.315,1.342,6.606,4.657,7.35c3.316,0.744,6.606-1.341,7.35-4.657C635.985,93.757,633.901,90.466,630.585,89.723z"/>
				</g>
			</g>
		</g>
		<g>
			<g>
				<g>
					<g>
						<g>
							<g>
								
									<rect x="381.274" y="369.715" transform="matrix(-1 -1.224647e-16 1.224647e-16 -1 770.3683 790.1983)" style="fill:#FFFFFF;stroke:#16004D;stroke-miterlimit:10;" width="7.82" height="50.768"/>
								<path style="fill:#6FBBEF;" d="M383.451,436.692h3.466c2.37,0,4.29-1.921,4.29-4.29v-34.78c0-2.369-1.921-4.29-4.29-4.29
									h-3.466c-2.37,0-4.29,1.921-4.29,4.29v34.78C379.161,434.771,381.081,436.692,383.451,436.692z"/>
							</g>
							<polygon style="fill:#6FBBEF;" points="354.327,433.061 356.246,433.061 414.122,433.061 418.673,433.061 418.673,438.28 
								418.673,444.151 414.122,444.151 414.122,438.28 356.246,438.28 356.246,444.151 351.696,444.151 351.696,438.28 
								351.696,433.061 							"/>
							<g>
								<g>
									<circle style="fill:#FFFFFF;stroke:#16004D;stroke-miterlimit:10;" cx="353.928" cy="447.15" r="6.98"/>
									<path style="fill:#16004D;" d="M351.254,447.15c0,1.477,1.197,2.674,2.674,2.674s2.674-1.197,2.674-2.674
										c0-1.477-1.197-2.674-2.674-2.674S351.254,445.673,351.254,447.15z"/>
								</g>
								<g>
									<circle style="fill:#FFFFFF;stroke:#16004D;stroke-miterlimit:10;" cx="416.638" cy="447.15" r="6.98"/>
									<path style="fill:#16004D;" d="M413.964,447.15c0,1.477,1.197,2.674,2.674,2.674c1.477,0,2.674-1.197,2.674-2.674
										c0-1.477-1.197-2.674-2.674-2.674C415.161,444.476,413.964,445.673,413.964,447.15z"/>
								</g>
							</g>
						</g>
						<g>
							<path style="fill:#6FBBEF;" d="M343.619,228.198c0,0-30.045-0.578-43.763,30.639c-13.718,31.217-3.86,75.302,19.989,97.069
								c25.361,23.147,87.224,16.924,98.046,14.306c10.822-2.619-37.011-104.647-38.324-107.845
								C378.255,259.169,343.619,228.198,343.619,228.198z"/>
							<path style="fill:none;stroke:#16004D;stroke-linecap:round;stroke-miterlimit:10;" d="M305.072,336.58
								c0,0,10.631,29.697,52.332,34.734c41.701,5.037,64.468-2.245,64.468-2.245"/>
						</g>
					</g>
					<g>
						<g>
							<g>
								<g>
									<polygon style="fill:#A66957;" points="455.869,402.935 459.232,432.888 439.94,434.989 437.26,402.935 									"/>
								</g>
								<g>
									<g>
										<polygon style="fill:#160047;" points="497.545,454.356 435.954,454.075 433.663,419.381 463.278,420.726 
											467.206,434.675 										"/>
									</g>
									<g>
										<g>
											<g>
												<g>
													<path style="fill:#FFFFFF;" d="M479.005,439.125c-1.117,2.374-2.235,4.748-3.352,7.122
														c-0.158,0.335-0.316,0.671-0.474,1.006c-0.341,0.724,0.737,1.359,1.079,0.631c1.117-2.374,2.235-4.748,3.352-7.122
														c0.158-0.335,0.316-0.671,0.474-1.006C480.425,439.032,479.348,438.396,479.005,439.125L479.005,439.125z"/>
												</g>
											</g>
											<g>
												<g>
													<path style="fill:#FFFFFF;" d="M473.352,436.116c-1.117,2.374-2.235,4.748-3.352,7.122
														c-0.158,0.335-0.316,0.671-0.474,1.006c-0.341,0.724,0.737,1.359,1.079,0.631c1.117-2.374,2.235-4.748,3.352-7.122
														c0.158-0.335,0.316-0.671,0.474-1.006C474.771,436.023,473.694,435.387,473.352,436.116L473.352,436.116z"/>
												</g>
											</g>
										</g>
									</g>
									<path style="fill:#F0F0F0;" d="M448.003,454.13c0.911-1.624,1.404-3.491,1.316-5.467
										c-0.26-5.827-5.385-10.363-11.426-10.112c-0.43,0.018-2.346,0.216-2.761,0.28l0.162,0.751
										c0.435-0.074,2.179-0.301,2.632-0.32c5.634-0.234,10.415,3.998,10.658,9.432c0.088,1.978-0.443,3.844-1.418,5.432
										L448.003,454.13z"/>
								</g>
							</g>
							<g>
								<path style="fill:#16004D;" d="M470.216,325.121c-5.082-23.457-22.386-23.536-22.386-23.536l-85.282-4.975
									c0,0,0.576,26.58,17.283,39.192c10.634,8.028,43.794,4.99,43.794,4.99L422.65,328.7l6.799,84.301h40.767
									C470.216,413.002,475.298,348.578,470.216,325.121z"/>
								<g>
									<polyline style="fill:none;stroke:#92CDFE;stroke-linecap:round;stroke-miterlimit:10;" points="470.216,413.002 
										429.449,413.002 422.65,328.7 									"/>
									<path style="fill:none;stroke:#92CDFE;stroke-linecap:round;stroke-miterlimit:10;" d="M362.548,296.61
										c0,0,0.576,26.58,17.283,39.192c10.634,8.028,43.794,4.99,43.794,4.99"/>
								</g>
								
									<line style="fill:none;stroke:#92CDFE;stroke-linecap:round;stroke-miterlimit:10;" x1="428.447" y1="400.579" x2="471.051" y2="400.579"/>
							</g>
						</g>
						<g>
							<g>
								<g>
									<polygon style="fill:#A66957;" points="425.283,402.935 428.645,432.888 409.353,434.989 406.674,402.935 									"/>
								</g>
								<g>
									<g>
										<polygon style="fill:#160047;" points="466.958,454.356 405.367,454.075 403.077,419.381 432.692,420.726 
											436.619,434.675 										"/>
									</g>
									<g>
										<g>
											<g>
												<g>
													<path style="fill:#FFFFFF;" d="M448.419,439.125c-1.117,2.374-2.235,4.748-3.352,7.122
														c-0.158,0.335-0.316,0.671-0.474,1.006c-0.341,0.724,0.737,1.359,1.079,0.631c1.117-2.374,2.235-4.748,3.352-7.122
														c0.158-0.335,0.316-0.671,0.474-1.006C449.839,439.032,448.761,438.396,448.419,439.125L448.419,439.125z"/>
												</g>
											</g>
											<g>
												<g>
													<path style="fill:#FFFFFF;" d="M442.765,436.116c-1.117,2.374-2.235,4.748-3.352,7.122
														c-0.158,0.335-0.316,0.671-0.474,1.006c-0.341,0.724,0.737,1.359,1.079,0.631c1.117-2.374,2.235-4.748,3.352-7.122
														c0.158-0.335,0.316-0.671,0.474-1.006C444.185,436.023,443.108,435.387,442.765,436.116L442.765,436.116z"/>
												</g>
											</g>
										</g>
									</g>
									<path style="fill:#F0F0F0;" d="M417.417,454.13c0.911-1.624,1.404-3.491,1.316-5.467
										c-0.26-5.827-5.385-10.363-11.426-10.112c-0.43,0.018-2.347,0.216-2.761,0.28l0.161,0.751
										c0.435-0.074,2.179-0.301,2.632-0.32c5.634-0.234,10.415,3.998,10.658,9.432c0.088,1.978-0.443,3.844-1.418,5.432
										L417.417,454.13z"/>
									<polyline style="fill:none;stroke:#FFFFFF;stroke-width:0.75;stroke-linecap:round;stroke-miterlimit:10;" points="
										432.692,420.726 436.619,434.675 467.524,454.356 									"/>
								</g>
							</g>
							<g>
								<path style="fill:#16004D;" d="M439.629,325.121c-5.082-23.457-22.386-23.536-22.386-23.536l-85.282-4.975
									c0,0-2.266,32.76,14.897,44.746c14.142,9.876,46.72,6.132,46.72,6.132l-1.515-18.786l6.799,84.301h40.767
									C439.629,413.002,444.712,348.578,439.629,325.121z"/>
								<g>
									<path style="fill:none;stroke:#92CDFE;stroke-linecap:round;stroke-miterlimit:10;" d="M417.243,301.585
										c0,0,17.304,0.079,22.386,23.536c5.082,23.457,0,87.881,0,87.881h-40.767l-6.535-81.023"/>
								</g>
								
									<line style="fill:none;stroke:#92CDFE;stroke-linecap:round;stroke-miterlimit:10;" x1="397.861" y1="400.579" x2="440.465" y2="400.579"/>
							</g>
						</g>
					</g>
				</g>
				<g>
					<g>
						<g>
							<path style="fill:#16004D;" d="M271.538,292.651l6.617-46.144c0.27-1.883-1.191-3.568-3.093-3.568h-53.544
								c-1.531,0-2.836,1.109-3.084,2.62l-6.983,42.628c-0.298,1.821,1.038,3.503,2.88,3.623l53.91,3.516
								C269.87,295.432,271.306,294.267,271.538,292.651z"/>
							<path style="fill:#6FBBEF;" d="M267.391,288.62l5.464-38.104c0.261-1.822-1.152-3.453-2.993-3.453h-44.365
								c-1.481,0-2.744,1.073-2.984,2.535l-5.765,35.191c-0.289,1.762,1.005,3.39,2.787,3.506l44.665,2.913
								C265.777,291.31,267.167,290.183,267.391,288.62z"/>
						</g>
						<g>
							<g>
								<path style="fill:#F6C8A6;" d="M237.961,282.517c0.574,0.716,29.854,6.074,29.854,6.074s15.693,11.953,15.118,12.052
									s-51.479-0.474-51.479-0.474L237.961,282.517z"/>
								<g>
									
										<line style="fill:none;stroke:#EF8576;stroke-linecap:round;stroke-miterlimit:10;" x1="264.753" y1="292.992" x2="275.009" y2="294.128"/>
									
										<line style="fill:none;stroke:#EF8576;stroke-linecap:round;stroke-miterlimit:10;" x1="264.753" y1="297.442" x2="280.168" y2="298.195"/>
								</g>
							</g>
							<g>
								<g>
									<g>
										<path style="fill:#F6C8A6;" d="M158.112,171.914l-7.616-0.289c-5.063-0.192-9.385,4.368-9.604,10.132l-0.448,11.806
											c-0.013,0.333-0.008,0.661,0.007,0.988c-0.095,0.345-0.157,0.704-0.171,1.076l-0.273,7.187l-0.015,0.4l-0.273,7.187
											c-0.099,2.608,1.954,4.822,4.562,4.921l3.021,0.115c2.608,0.099,4.822-1.954,4.921-4.562l0.241-6.36l4.404,0.167
											c5.063,0.192,9.385-4.368,9.604-10.132l0.448-11.806C167.139,176.98,163.175,172.106,158.112,171.914z"/>
										<g>
											<path style="fill:#161522;" d="M161.79,187.419c0.371,0.809,0.016,1.766-0.793,2.137
												c-0.809,0.371-1.766,0.016-2.137-0.793c-0.371-0.809-0.016-1.766,0.793-2.137
												C160.462,186.255,161.419,186.61,161.79,187.419z"/>
										</g>
										<g>
											<path style="fill:#F6C8A6;" d="M166.466,186.129c0.522,1.839,1.086,3.754,2.396,5.145
												c0.039,0.041,0.081,0.088,0.083,0.144c0.003,0.08-0.07,0.138-0.137,0.182c-0.74,0.49-1.527,0.907-2.347,1.245"/>
											<g>
												<path style="fill:#101010;" d="M166.105,186.229c0.38,1.339,0.775,2.698,1.469,3.914
													c0.162,0.284,0.342,0.558,0.54,0.819c0.108,0.142,0.218,0.281,0.336,0.415c0.023,0.026,0.115,0.16,0.148,0.163
													c0.09-0.243,0.081-0.319-0.028-0.229c-0.034,0.022-0.068,0.044-0.102,0.066c-0.668,0.429-1.373,0.803-2.105,1.109
													c-0.439,0.183-0.246,0.909,0.199,0.723c0.775-0.324,1.524-0.7,2.234-1.152c0.289-0.184,0.639-0.42,0.484-0.815
													c-0.126-0.321-0.479-0.593-0.679-0.878c-0.907-1.292-1.346-2.833-1.773-4.333
													C166.696,185.566,165.972,185.763,166.105,186.229L166.105,186.229z"/>
											</g>
										</g>
										<g>
											<g>
												<path style="fill:#161522;" d="M160.54,183.832c-1.005,0.633-2,1.281-2.987,1.942c-0.217,0.145-0.332,0.447-0.179,0.684
													c0.139,0.216,0.452,0.335,0.684,0.179c0.987-0.661,1.982-1.309,2.987-1.942c0.221-0.139,0.329-0.452,0.179-0.684
													C161.081,183.79,160.777,183.683,160.54,183.832L160.54,183.832z"/>
											</g>
										</g>
									</g>
									<g>
										<path style="fill:#16004D;" d="M170.969,159.203c-4.546-2.159-11.487,8.137-11.487,8.137s4.442-6.741-0.637-8.311
											c-5.079-1.57-11.074,7.833-11.074,7.833s-19.807,2.892-18.832,21.256c0,0,0.286,10.461,11.104,13.751l0.363-11.264
											l1.551-1.074l1.071,3.667c0,0,4.272,0.93,7.053-5.837c4.563-1.044,11.038-3.4,17.298-8.733
											C178.76,168.935,175.515,161.362,170.969,159.203z"/>
										<g>
											<path style="fill:#F6C8A6;" d="M133.502,192.802c0.071,3.231,2.77,5.793,6.027,5.721c3.258-0.071,5.841-2.749,5.77-5.98
												c-0.071-3.231-2.769-5.793-6.027-5.721C136.014,186.893,133.431,189.571,133.502,192.802z"/>
											<g>
												<g>
													<path style="fill:#EF8576;" d="M142.929,193.389c0.059-1.412-0.638-2.981-1.98-3.564
														c-0.723-0.314-1.519-0.357-2.294-0.26c-0.201,0.025-0.375,0.154-0.375,0.375c0,0.183,0.173,0.4,0.375,0.375
														c0.641-0.081,1.24-0.08,1.834,0.129c0.178,0.063,0.382,0.169,0.588,0.312c0.018,0.012,0.035,0.025,0.052,0.038
														c-0.067-0.051,0.017,0.014,0.025,0.021c0.04,0.034,0.08,0.069,0.118,0.105c0.082,0.077,0.157,0.161,0.23,0.247
														c0.013,0.015,0.025,0.031,0.038,0.047c-0.056-0.071,0.005,0.008,0.013,0.019c0.028,0.04,0.056,0.08,0.083,0.122
														c0.055,0.085,0.105,0.173,0.152,0.262c0.02,0.038,0.038,0.076,0.056,0.114c0.013,0.027,0.066,0.151,0.03,0.063
														c0.038,0.091,0.072,0.184,0.103,0.278c0.054,0.165,0.097,0.334,0.13,0.504c0.014,0.072,0.026,0.145,0.037,0.217
														c0.017,0.106-0.008-0.082,0.003,0.021c0.004,0.037,0.009,0.075,0.012,0.112c0.015,0.153,0.026,0.308,0.02,0.462
														C142.159,193.872,142.909,193.871,142.929,193.389L142.929,193.389z"/>
												</g>
											</g>
										</g>
									</g>
									<circle style="fill:#EF8576;" cx="154.154" cy="192.673" r="3.975"/>
								</g>
								<path style="fill:#F6C8A6;stroke:#101010;stroke-width:0.75;stroke-linecap:round;stroke-miterlimit:10;" d="
									M159.755,196.648c0,0,1.828,3.853,5.07,3.437"/>
							</g>
							<g>
								<polygon style="fill:#FFFFFF;" points="128.904,217.521 135.721,208.023 156.054,208.023 159.869,217.711 								"/>
								<path style="fill:#FFFFFF;" d="M144.368,214.374"/>
								<g>
									<path style="fill:#FFFFFF;stroke:#16004D;stroke-linecap:round;stroke-miterlimit:10;" d="M114.335,243.618l-0.766,55.307
										l138.296,1.818v-16.745l-48.351-11.1c0,0-9.967-21.625-25.385-41.719c-15.418-20.094-34.481-18.533-46.712-15.107
										c-14.066,3.94-26.683,18.796-27.991,41.705c-1.485,25.996-1.352,41.147-1.352,41.147h10.155"/>
									
										<line style="fill:none;stroke:#16004D;stroke-linecap:round;stroke-miterlimit:10;" x1="245.413" y1="282.517" x2="244.274" y2="300.643"/>
									<polyline style="fill:none;stroke:#16004D;stroke-linecap:round;stroke-miterlimit:10;" points="129.19,216.625 
										135.721,208.023 156.054,208.023 159.693,216.625 									"/>
								</g>
								<path style="fill:none;stroke:#16004D;stroke-linecap:round;stroke-miterlimit:10;" d="M160.863,247.063
									c0,0-0.569,48.943,20.356,53.106"/>
							</g>
						</g>
					</g>
					<g>
						<g>
							<g>
								<g>
									<path style="fill:#A66957;" d="M420.288,215.476c0,0,9.634-18.622,11.511-21.865c1.876-3.243,4.119-5.239,5.265-3.954
										c1.146,1.284,0,5.395,0,5.395s3.994-6.45,5.948-8.757c1.955-2.307,5.03-2.855,3.571,1.153c0,0,1.863-3.068,3.349-2.638
										c1.486,0.43,0.078,2.962-1.29,4.491c0,0,2.628-3.784,3.943-3.092c1.315,0.692,0.026,3.032-1.556,5.029
										c0,0,1.835-2.868,3.32-2.146c1.486,0.722-0.332,3.437-2.404,6.916c-2.072,3.479-5.603,8.681-7.456,12.239
										c-1.401,2.689-5.367,10.966-5.367,10.966l-0.762,2.033L420.288,215.476z"/>
									<g>
										<path style="fill:none;stroke:#7F4040;stroke-width:0.75;stroke-linecap:round;stroke-miterlimit:10;" d="
											M436.621,189.301c0,0,0.887,0.138,0.887,2.428c0,2.29-0.938,5.571-0.444,7.526c0.495,1.955-0.444,5.004-0.444,5.004"/>
										
											<line style="fill:none;stroke:#7F4040;stroke-width:0.75;stroke-linecap:round;stroke-miterlimit:10;" x1="441.436" y1="194.891" x2="447.544" y2="186.209"/>
										<path style="fill:none;stroke:#7F4040;stroke-width:0.75;stroke-linecap:round;stroke-miterlimit:10;" d="
											M443.505,196.008c0.192-0.25,6.337-8.385,6.337-8.385"/>
										
											<line style="fill:none;stroke:#7F4040;stroke-width:0.75;stroke-linecap:round;stroke-miterlimit:10;" x1="446.095" y1="197.468" x2="452.205" y2="189.754"/>
									</g>
								</g>
								<g>
									<path style="fill:#5069FF;" d="M420.991,210.593l-23.523,28.827l3.38-4.142l-28.719-26.352c0,0,1.862,48.894,3.113,55.132
										c1.251,6.239,20.034,20.588,41.23,9.751c21.196-10.837,25.764-53.001,25.764-53.001L420.991,210.593z"/>
									<g>
										<path style="fill:none;stroke:#16004D;stroke-linecap:round;stroke-miterlimit:10;" d="M415.182,217.712l25.305,13.403
											c1.292-6.097,1.748-10.306,1.748-10.306l-21.244-10.215L415.182,217.712z"/>
										<g>
											
												<line style="fill:none;stroke:#16004D;stroke-linecap:round;stroke-miterlimit:10;" x1="439.905" y1="219.82" x2="437.178" y2="229.15"/>
											<path style="fill:none;stroke:#16004D;stroke-linecap:round;stroke-miterlimit:10;" d="M436.621,218.109
												c-0.117,0.108-3.63,9.036-3.63,9.036"/>
											
												<line style="fill:none;stroke:#16004D;stroke-linecap:round;stroke-miterlimit:10;" x1="432.851" y1="216.296" x2="428.359" y2="224.485"/>
											
												<line style="fill:none;stroke:#16004D;stroke-linecap:round;stroke-miterlimit:10;" x1="428.841" y1="214.368" x2="424.266" y2="222.305"/>
											
												<line style="fill:none;stroke:#16004D;stroke-linecap:round;stroke-miterlimit:10;" x1="419.879" y1="220.2" x2="424.59" y2="212.648"/>
										</g>
									</g>
									<polyline style="fill:none;stroke:#16004D;stroke-linecap:round;stroke-miterlimit:10;" points="442.235,220.808 
										420.991,210.593 397.468,239.42 									"/>
									
										<line style="fill:none;stroke:#16004D;stroke-linecap:round;stroke-miterlimit:10;" x1="400.848" y1="235.278" x2="372.129" y2="208.926"/>
								</g>
							</g>
							<path style="fill:#5069FF;stroke:#16004D;stroke-miterlimit:10;" d="M362.277,203.712c0,0,20.158,1.564,29.228,28.461
								c9.07,26.898,14.387,67.452,14.387,67.452l-79.307,2.257C326.585,301.883,320.226,210.906,362.277,203.712z"/>
							<g>
								<g>
									<polygon style="fill:#A66957;" points="384.728,282.007 413.984,289.331 425.752,299.367 372.524,299.367 									"/>
									<g>
										
											<line style="fill:none;stroke:#7F4040;stroke-width:0.75;stroke-linecap:round;stroke-miterlimit:10;" x1="406.674" y1="291.338" x2="417.518" y2="292.176"/>
										
											<line style="fill:none;stroke:#7F4040;stroke-width:0.75;stroke-linecap:round;stroke-miterlimit:10;" x1="407.456" y1="295.638" x2="421.192" y2="295.924"/>
									</g>
								</g>
								<g>
									<path style="fill:#5069FF;" d="M391.609,276.586l-43.204-13.206l4.033-29.33l2.704-29.486c0,0-18.373,4.126-35.849,30.501
										c-2.904,4.383-6.676,10.923-9.484,16.583c-11.699,23.584-10.376,34.125-4.814,40.601c3.806,4.431,9.44,7.119,19.386,7.119
										c24.484,0,67.958,0,67.958,0L391.609,276.586z"/>
									<g>
										<path style="fill:none;stroke:#16004D;stroke-linecap:round;stroke-miterlimit:10;" d="M336.355,259.697l55.255,16.889
											l0.73,22.782c0,0-43.474,0-67.958,0c-17.722,0-25.692-9.005-22.199-26.669"/>
										
											<line style="fill:none;stroke:#16004D;stroke-linecap:round;stroke-miterlimit:10;" x1="344.829" y1="262.287" x2="353.661" y2="238.898"/>
										
											<line style="fill:none;stroke:#16004D;stroke-linecap:round;stroke-miterlimit:10;" x1="382.527" y1="273.81" x2="382.527" y2="299.367"/>
										<g>
											
												<line style="fill:none;stroke:#16004D;stroke-linecap:round;stroke-miterlimit:10;" x1="382.527" y1="278.671" x2="391.322" y2="279.557"/>
											
												<line style="fill:none;stroke:#16004D;stroke-linecap:round;stroke-miterlimit:10;" x1="382.774" y1="283.988" x2="391.765" y2="284.405"/>
											
												<line style="fill:none;stroke:#16004D;stroke-linecap:round;stroke-miterlimit:10;" x1="382.527" y1="288.705" x2="391.896" y2="288.835"/>
											
												<line style="fill:none;stroke:#16004D;stroke-linecap:round;stroke-miterlimit:10;" x1="382.527" y1="292.927" x2="392.026" y2="293.032"/>
											
												<line style="fill:none;stroke:#16004D;stroke-linecap:round;stroke-miterlimit:10;" x1="382.527" y1="296.316" x2="392.241" y2="296.316"/>
										</g>
									</g>
								</g>
							</g>
							<g>
								<path style="fill:#FFFFFF;stroke:#16004D;stroke-miterlimit:10;" d="M370.821,204.335c-1.413-0.976-4.77-3.785-5.855-3.69
									c-1.088,0.052-5.796-1.781-8.842,1.771c-3.679,4.29-5.377,11.251-2.089,15.335c2.615,3.249,8.137,1.927,12.006-0.599
									c4.174,1.982,8.641,1.512,10.632-1.37C378.981,212.439,375.471,207.547,370.821,204.335z"/>
								<g>
									<g>
										<path style="fill:#A66957;" d="M372.552,170.316h-7.138c-4.746,0-8.629,4.421-8.629,9.824v3.408
											c-0.933-0.665-2.073-1.06-3.309-1.06c-3.139,0-5.683,2.523-5.683,5.637c0,3.113,2.544,5.637,5.683,5.637
											c1.211,0,2.331-0.379,3.253-1.019l0.089,0.063v4.303v0.417v7.483c0,2.715,2.222,4.937,4.937,4.937h3.146
											c2.715,0,4.937-2.222,4.937-4.937v-3.98h2.714c4.746,0,8.629-4.421,8.629-9.824v-11.065
											C381.181,174.737,377.298,170.316,372.552,170.316z"/>
										<path style="fill:none;stroke:#7F4040;stroke-linecap:round;stroke-miterlimit:10;" d="M356.55,188.87
											c0,0,0.25-3.829-3.681-3.403"/>
										<g>
											<g>
												<path style="fill:#010001;" d="M366.896,183.756c0,0.889,0.72,1.609,1.609,1.609c0.889,0,1.609-0.72,1.609-1.609
													c0-0.889-0.72-1.609-1.609-1.609C367.617,182.147,366.896,182.867,366.896,183.756z"/>
												<path style="fill:#010001;" d="M377.431,183.52c0,0.758,0.615,1.373,1.373,1.373c0.759,0,1.374-0.615,1.374-1.373
													s-0.615-1.373-1.374-1.373C378.046,182.147,377.431,182.762,377.431,183.52z"/>
											</g>
											<g>
												<path style="fill:#9E5656;" d="M361.304,189.673c0,2.209,1.791,4,3.999,4c2.209,0,4-1.791,4-4c0-2.209-1.791-4-4-4
													C363.094,185.673,361.304,187.464,361.304,189.673z"/>
												<path style="fill:#9E5656;" d="M380.448,186.629c0.244,0,0.479,0.032,0.706,0.086v4.148c0,0.62-0.023,1.219-0.149,1.803
													c-0.167,0.028-0.382,0.051-0.557,0.051c-1.681,0-3.044-1.363-3.044-3.044S378.767,186.629,380.448,186.629z"/>
											</g>
											<g>
												<g>
													<path style="fill:#7F4040;" d="M366.299,181.444c0.791-0.417,1.613-0.746,2.474-0.994
														c0.195-0.056,0.316-0.265,0.262-0.461c-0.053-0.194-0.266-0.318-0.461-0.262c-0.918,0.264-1.808,0.624-2.653,1.07
														c-0.179,0.094-0.234,0.344-0.134,0.513C365.892,181.491,366.119,181.539,366.299,181.444L366.299,181.444z"/>
												</g>
											</g>
											<g>
												<g>
													<path style="fill:#7F4040;" d="M377.404,181.14c0.885-0.033,1.776,0.002,2.655,0.122
														c0.2,0.027,0.403-0.048,0.461-0.262c0.048-0.175-0.06-0.434-0.262-0.461c-0.947-0.129-1.898-0.185-2.854-0.149
														c-0.202,0.008-0.375,0.167-0.375,0.375C377.029,180.962,377.201,181.147,377.404,181.14L377.404,181.14z"/>
												</g>
											</g>
											<g>
												<g>
													<path style="fill:#7F4040;" d="M373.645,182.262c0.511,1.518,1.231,2.958,2.148,4.271
														c0.045-0.171,0.09-0.342,0.135-0.513c-0.659,0.285-1.356,0.477-2.064,0.59c-0.2,0.032-0.311,0.281-0.262,0.461
														c0.059,0.213,0.261,0.294,0.461,0.262c0.777-0.125,1.521-0.353,2.243-0.666c0.176-0.076,0.24-0.362,0.135-0.513
														c-0.881-1.26-1.582-2.634-2.073-4.092C374.215,181.608,373.49,181.803,373.645,182.262L373.645,182.262z"/>
												</g>
											</g>
										</g>
										<g>
											<g>
												<g>
													<path style="fill:#2E4ECC;" d="M356.928,160.771c0,1.694-1.373,3.068-3.067,3.068c-1.694,0-3.068-1.374-3.068-3.068
														s1.374-3.068,3.068-3.068C355.555,157.704,356.928,159.077,356.928,160.771z"/>
													<path style="fill:none;stroke:#161522;stroke-miterlimit:10;" d="M331.625,155.854c0,0,2.706,0.545,5.665,2.302
														s10.185-0.407,11.453-9.032c1.268-8.625-7.986-14.325-14.582-13.986c-6.596,0.338-7.84,2.624-11.361,7.612
														c-3.521,4.988-6.022,2.84-9.481-1.423c-5.033-6.202-16.533-5.512-22.452,3.959c-5.919,9.471-4.514,21.732,7.932,28.158
														c12.446,6.426,24.958,0.813,25.848-8.092C325.537,156.446,330.31,155.495,331.625,155.854z"/>
												</g>
											</g>
											<path style="fill:#161522;" d="M353.477,166.854c5.794-5.843,14.191-6.308,22.008-1.615
												c7.817,4.692,7.644,12.377,7.179,13.473c-0.276,0.65-0.663,1.139-1.485,1.305c-0.721,0.091-1.936-0.041-4.102-0.502
												c-6.235-1.327-10.18-6.729-10.18-6.729s0.53,0.974-1.593,5.489c-1.592,3.387-5.64,5.481-7.707,6.346
												c-0.637-0.865-2.183-2.06-4.061-2.132c-1.345-0.051-2.873,0.692-3.864,1.452
												C348.091,180.871,348.144,172.232,353.477,166.854z"/>
										</g>
										<g>
											<g>
												<path style="fill:#7F4040;" d="M376.2,192.114c-0.016,1.146-0.943,2.103-2.102,2.102
													c-1.159-0.001-2.086-0.954-2.102-2.102c-0.007-0.482-0.757-0.484-0.75,0c0.016,1.192,0.748,2.25,1.864,2.674
													c1.094,0.416,2.407,0.076,3.156-0.824c0.438-0.526,0.674-1.166,0.683-1.85
													C376.956,191.631,376.206,191.631,376.2,192.114L376.2,192.114z"/>
											</g>
										</g>
									</g>
								</g>
							</g>
						</g>
						<g>
							<rect x="379.961" y="296.45" style="fill:#161522;" width="34.281" height="3.418"/>
							<g>
								<path style="fill:#161522;" d="M477.432,299.867h-63.088c-2.525,0-4.572-2.047-4.572-4.572v-39.353
									c0-2.525,2.047-4.572,4.572-4.572h63.088c2.525,0,4.572,2.047,4.572,4.572v39.353
									C482.004,297.821,479.957,299.867,477.432,299.867z"/>
								<path style="fill:none;stroke:#FFFFFF;stroke-miterlimit:10;" d="M451.498,275.569c0,3.473-2.815,6.288-6.288,6.288
									c-3.473,0-6.288-2.815-6.288-6.288c0-3.473,2.815-6.288,6.288-6.288C448.683,269.282,451.498,272.097,451.498,275.569z"/>
							</g>
						</g>
					</g>
				</g>
				<g>
					<g>
						<rect x="97.255" y="306.042" style="fill:#FFFFFF;stroke:#16004D;stroke-miterlimit:10;" width="8.827" height="149.381"/>
						<rect x="489.392" y="306.042" style="fill:#FFFFFF;stroke:#16004D;stroke-miterlimit:10;" width="8.827" height="149.381"/>
					</g>
					<rect x="66.707" y="299.367" style="fill:#FFFFFF;stroke:#16004D;stroke-miterlimit:10;" width="462.06" height="9.951"/>
				</g>
				<g>
					<g>
						<g>
							<g>
								<g>
									<polygon style="fill:#F6C8A6;" points="185.157,394.435 176.814,427.999 160.063,418.57 167.365,389.393 									"/>
								</g>
								<g>
									<g>
										<polygon style="fill:#16004D;" points="199.136,455.268 150.264,434.63 157.717,412.958 182.425,424 181.774,428.995 
																					"/>
									</g>
									<g>
										<g>
											<g>
												<g>
													<path style="fill:#FFFFFF;" d="M189.506,436.568c-1.704,1.587-3.409,3.174-5.113,4.762
														c-0.24,0.223-0.48,0.447-0.72,0.67c-0.59,0.549,0.295,1.432,0.884,0.884c1.704-1.587,3.409-3.174,5.113-4.762
														c0.24-0.223,0.48-0.447,0.72-0.67C190.98,436.903,190.094,436.02,189.506,436.568L189.506,436.568z"/>
												</g>
											</g>
											<g>
												<g>
													<path style="fill:#FFFFFF;" d="M186.044,432.215c-1.704,1.587-3.409,3.174-5.113,4.762
														c-0.24,0.224-0.48,0.447-0.72,0.67c-0.59,0.549,0.295,1.432,0.884,0.884c1.704-1.587,3.409-3.174,5.113-4.762
														c0.24-0.224,0.48-0.447,0.72-0.67C187.518,432.549,186.633,431.667,186.044,432.215L186.044,432.215z"/>
												</g>
											</g>
										</g>
									</g>
								</g>
							</g>
							<g>
								<path style="fill:#2E4ECC;" d="M165.859,331.458l0.012,0.018l-18.655,65.811l48.834,26.414c0,0,24.387-69.241,26.456-92.244
									H165.859z"/>
								<polyline style="fill:none;stroke:#16004D;stroke-linecap:round;stroke-miterlimit:10;" points="196.051,423.702 
									147.217,397.288 165.872,331.476 145.581,301.663 173.204,279.595 								"/>
							</g>
						</g>
						<g>
							<g>
								<g>
									<polygon style="fill:#F6C8A6;" points="237.584,403.585 242.793,437.776 223.704,435.517 219.221,405.775 									"/>
								</g>
								<g>
									<g>
										<polygon style="fill:#16004D;" points="273.887,454.362 220.836,454.11 219.38,431.238 246.434,431.927 247.755,436.788 
																					"/>
									</g>
									<g>
										<g>
											<g>
												<g>
													<path style="fill:#FFFFFF;" d="M257.843,440.727c-0.961,2.116-1.922,4.233-2.883,6.349
														c-0.137,0.303-0.275,0.606-0.412,0.908c-0.139,0.307-0.088,0.673,0.224,0.855c0.268,0.157,0.715,0.085,0.855-0.224
														c0.961-2.116,1.922-4.233,2.883-6.349c0.138-0.303,0.275-0.606,0.412-0.908c0.14-0.307,0.088-0.673-0.224-0.855
														C258.43,440.346,257.983,440.418,257.843,440.727L257.843,440.727z"/>
												</g>
											</g>
											<g>
												<g>
													<path style="fill:#FFFFFF;" d="M252.973,438.04c-0.961,2.116-1.922,4.233-2.883,6.349
														c-0.137,0.303-0.275,0.606-0.412,0.909c-0.139,0.307-0.088,0.672,0.224,0.855c0.268,0.157,0.715,0.085,0.855-0.224
														c0.961-2.116,1.922-4.233,2.883-6.349c0.137-0.303,0.275-0.606,0.412-0.908c0.139-0.307,0.088-0.673-0.224-0.855
														C253.56,437.659,253.113,437.731,252.973,438.04L252.973,438.04z"/>
												</g>
											</g>
										</g>
									</g>
								</g>
							</g>
							<g>
								<path style="fill:#2E4ECC;" d="M175.574,308.111c0,0,57.412,4.21,66.215,21.434c8.803,17.223,19.137,96.904,19.137,96.904
									l-55.498-1.566l-13.013-67.155l-31.551-17.466L175.574,308.111z"/>
								<polyline style="fill:none;stroke:#16004D;stroke-linecap:round;stroke-miterlimit:10;" points="260.926,426.448 
									205.428,424.882 192.414,357.727 160.863,340.261 175.574,308.111 								"/>
							</g>
						</g>
					</g>
					<g>
						<g>
							<g>
								
									<rect x="145.44" y="369.582" transform="matrix(-1 -1.224647e-16 1.224647e-16 -1 298.6993 789.9314)" style="fill:#FFFFFF;stroke:#16004D;stroke-miterlimit:10;" width="7.82" height="50.768"/>
								<path style="fill:#6FBBEF;" d="M147.616,436.559h3.466c2.37,0,4.29-1.921,4.29-4.29v-34.78c0-2.37-1.921-4.29-4.29-4.29
									h-3.466c-2.369,0-4.29,1.921-4.29,4.29v34.78C143.326,434.638,145.247,436.559,147.616,436.559z"/>
							</g>
							<polygon style="fill:#6FBBEF;" points="118.493,432.928 120.411,432.928 178.288,432.928 182.838,432.928 182.838,438.147 
								182.838,444.018 178.288,444.018 178.288,438.147 120.411,438.147 120.411,444.018 115.861,444.018 115.861,438.147 
								115.861,432.928 							"/>
							<g>
								<g>
									<path style="fill:#FFFFFF;stroke:#16004D;stroke-miterlimit:10;" d="M111.114,447.017c0,3.855,3.125,6.98,6.98,6.98
										c3.855,0,6.979-3.125,6.979-6.98s-3.125-6.979-6.979-6.979C114.239,440.037,111.114,443.162,111.114,447.017z"/>
									<path style="fill:#16004D;" d="M115.419,447.017c0,1.477,1.197,2.674,2.674,2.674c1.477,0,2.674-1.197,2.674-2.674
										c0-1.477-1.197-2.674-2.674-2.674C116.617,444.342,115.419,445.54,115.419,447.017z"/>
								</g>
								<g>
									<path style="fill:#FFFFFF;stroke:#16004D;stroke-miterlimit:10;" d="M173.824,447.017c0,3.855,3.125,6.98,6.98,6.98
										c3.855,0,6.98-3.125,6.98-6.98s-3.125-6.979-6.98-6.979C176.949,440.037,173.824,443.162,173.824,447.017z"/>
									<path style="fill:#16004D;" d="M178.129,447.017c0,1.477,1.197,2.674,2.674,2.674s2.674-1.197,2.674-2.674
										c0-1.477-1.197-2.674-2.674-2.674S178.129,445.54,178.129,447.017z"/>
								</g>
							</g>
						</g>
						<g>
							<path style="fill:#6FBBEF;" d="M154.386,375.206c-13.955,0.024-34.45-1.115-55.345-15.668
								c-20.895-14.552-11.007-27.052-9.888-44.589c1.119-17.537-19.776-43.284,3.358-55.224c23.134-11.94,75,0,91.045,29.478
								s6.716,38.433,22.761,45.149c16.045,6.716,16.045,19.403,3.731,28.731S171.215,375.177,154.386,375.206z"/>
							<path style="fill:none;stroke:#16004D;stroke-linecap:round;stroke-miterlimit:10;" d="M210.048,363.083
								c-12.313,9.328-38.834,12.094-55.662,12.123c-13.955,0.024-34.45-1.115-55.345-15.668"/>
						</g>
					</g>
				</g>
			</g>
			<g>
				<g>
					<g>
						<g>
							<g>
								<g>
									<polygon style="fill:#F6C8A6;" points="627.963,407.879 607.782,385.86 623.442,372.568 644.054,395.057 									"/>
									<g>
										<polygon style="fill:#16004D;" points="623.296,455.391 671.89,411.127 644.634,383.371 623.224,405.662 632.749,417.535 
																					"/>
										<g>
											<g>
												<g>
													<line style="fill:#263238;" x1="626.504" y1="430.27" x2="635.559" y2="434.211"/>
													<g>
														<path style="fill:#FFFFFF;" d="M626.314,430.594c2.646,1.152,5.292,2.303,7.938,3.455
															c0.372,0.162,0.745,0.324,1.117,0.486c0.438,0.191,0.82-0.455,0.378-0.648c-2.646-1.152-5.292-2.303-7.938-3.455
															c-0.372-0.162-0.745-0.324-1.117-0.486C626.255,429.755,625.872,430.401,626.314,430.594L626.314,430.594z"/>
													</g>
												</g>
												<g>
													<line style="fill:#263238;" x1="628.753" y1="423.757" x2="637.809" y2="427.698"/>
													<g>
														<path style="fill:#FFFFFF;" d="M628.564,424.081c2.646,1.152,5.292,2.303,7.938,3.455
															c0.372,0.162,0.745,0.324,1.117,0.486c0.438,0.191,0.82-0.455,0.379-0.648c-2.646-1.152-5.292-2.303-7.938-3.455
															c-0.372-0.162-0.745-0.324-1.117-0.486C628.505,423.242,628.122,423.888,628.564,424.081L628.564,424.081z"/>
													</g>
												</g>
											</g>
											<g>
												<g>
													<g>
														<path style="fill:#FFFFFF;" d="M631.123,419.319c-2.107,0.775-4.273,1.417-6.449,1.963
															c-1.807,0.454-3.644,0.842-5.501,1.023c-1.458,0.142-3.128,0.252-4.516-0.316c-1.2-0.491-1.648-1.634-1.482-2.887
															c0.155-1.163,1.071-1.783,2.14-2.055c2.927-0.745,6.346,0.156,9.186,0.892c2.238,0.579,4.464,1.269,6.621,2.103
															c0.451,0.174,0.646-0.551,0.199-0.723c-2.034-0.787-4.131-1.441-6.238-2.003c-3.072-0.819-6.736-1.784-9.912-1.007
															c-1.084,0.266-2.117,0.856-2.545,1.937c-0.438,1.104-0.297,2.699,0.513,3.604c0.905,1.011,2.421,1.233,3.704,1.287
															c1.868,0.079,3.755-0.215,5.582-0.578c3.014-0.599,6.011-1.456,8.897-2.517
															C631.772,419.877,631.578,419.152,631.123,419.319z"/>
													</g>
												</g>
												<g>
													<g>
														<path style="fill:#FFFFFF;" d="M617.244,410.49c4.174,2.747,8.348,5.494,12.522,8.241
															c0.603,0.397,1.206,0.793,1.809,1.19c0.404,0.266,0.78-0.383,0.379-0.648c-4.174-2.747-8.348-5.494-12.522-8.241
															c-0.603-0.397-1.206-0.794-1.809-1.19C617.218,409.576,616.842,410.225,617.244,410.49L617.244,410.49z"/>
													</g>
												</g>
											</g>
										</g>
										<path style="fill:#FFFFFF;" d="M660.324,399.349c-5.194,5.169-5.445,13.554-0.451,19.01
											c0.635,0.694,1.326,1.306,2.057,1.84l9.959-9.071L660.324,399.349z"/>
									</g>
								</g>
							</g>
							<g>
								<path style="fill:#2E4ECC;" d="M562.191,241.414c0,0-24.27,56.556-19.328,77.568c4.942,21.012,37.663,53.983,69.771,80.367
									l23.16-26.119l-28.013-48.38l12.345-78.147l-57.096-3.941"/>
								
									<line style="fill:none;stroke:#16004D;stroke-linecap:round;stroke-miterlimit:10;" x1="627.769" y1="359.37" x2="600.032" y2="388.669"/>
								<path style="fill:none;stroke:#16004D;stroke-linecap:round;stroke-miterlimit:10;" d="M560.67,349.188
									c13.557,16.45,32.869,34.471,51.964,50.162l23.16-26.119l-28.013-48.38"/>
							</g>
						</g>
						<g>
							<g>
								<g>
									<polygon style="fill:#F6C8A6;" points="582.218,423.729 582.495,393.862 602.537,394.829 602.254,425.335 									"/>
								</g>
								<g>
									<polygon style="fill:#16004D;" points="542.863,454.104 608.594,454.266 607.232,415.389 576.388,417.375 575.397,432.564 
																			"/>
									<g>
										<g>
											<g>
												<line style="fill:#263238;" x1="562.191" y1="437.74" x2="566.209" y2="446.762"/>
												<g>
													<path style="fill:#FFFFFF;" d="M561.868,437.929c1.172,2.631,2.343,5.262,3.515,7.892
														c0.168,0.376,0.335,0.753,0.503,1.129c0.196,0.44,0.843,0.059,0.648-0.379c-1.172-2.631-2.343-5.262-3.515-7.892
														c-0.168-0.376-0.335-0.753-0.503-1.129C562.319,437.111,561.673,437.492,561.868,437.929L561.868,437.929z"/>
												</g>
											</g>
											<g>
												<line style="fill:#263238;" x1="568.249" y1="434.455" x2="572.267" y2="443.476"/>
												<g>
													<path style="fill:#FFFFFF;" d="M567.925,434.644c1.172,2.631,2.343,5.261,3.515,7.892
														c0.168,0.376,0.335,0.753,0.503,1.129c0.196,0.44,0.843,0.059,0.648-0.379c-1.172-2.631-2.343-5.262-3.515-7.892
														c-0.168-0.377-0.335-0.753-0.503-1.129C568.377,433.825,567.73,434.207,567.925,434.644L567.925,434.644z"/>
												</g>
											</g>
										</g>
										<g>
											<g>
												<g>
													<path style="fill:#FFFFFF;" d="M572.922,432.754c-1.973-0.808-4.146-1.866-6.1-2.927
														c-1.605-0.872-3.184-1.812-4.65-2.904c-1.173-0.874-2.451-1.915-3.109-3.256c-0.566-1.153-0.172-2.234,0.745-3.08
														c0.848-0.783,1.926-0.728,2.91-0.233c1.275,0.641,2.318,1.718,3.246,2.779c1.116,1.275,2.1,2.663,3.025,4.081
														c1.277,1.959,2.469,3.995,3.509,6.092c0.214,0.432,0.862,0.053,0.648-0.378c-0.966-1.949-2.068-3.842-3.239-5.674
														c-0.97-1.517-2.007-2.999-3.172-4.372c-0.992-1.169-2.116-2.349-3.477-3.09c-1.034-0.562-2.253-0.812-3.33-0.215
														c-1.056,0.585-1.979,1.887-1.903,3.125c0.085,1.392,1.136,2.583,2.101,3.491c1.37,1.289,2.968,2.339,4.58,3.297
														c2.56,1.521,5.26,2.859,8.017,3.988C573.169,433.66,573.364,432.935,572.922,432.754z"/>
												</g>
											</g>
											<g>
												<g>
													<path style="fill:#FFFFFF;" d="M568.714,416.886c1.228,4.861,2.456,9.722,3.684,14.583
														c0.173,0.683,0.345,1.367,0.518,2.05c0.118,0.468,0.842,0.27,0.723-0.199c-1.228-4.861-2.456-9.722-3.684-14.583
														c-0.173-0.683-0.345-1.367-0.518-2.05C569.319,416.219,568.596,416.417,568.714,416.886L568.714,416.886z"/>
												</g>
											</g>
										</g>
									</g>
									<path style="fill:#FFFFFF;" d="M608.016,437.769c-7.322,0.305-13.168,6.32-13.168,13.717c0,0.94,0.096,1.858,0.276,2.746
										l13.471,0.033L608.016,437.769z"/>
								</g>
							</g>
							<g>
								<path style="fill:#2E4ECC;stroke:#16004D;stroke-linecap:round;stroke-miterlimit:10;" d="M627.466,248.978
									c-0.427,0.904-15.996,156.492-15.996,156.492h-37.028l-0.329-16.095l-2.936-143.429L627.466,248.978z"/>
								<path style="fill:none;stroke:#16004D;stroke-linecap:round;stroke-miterlimit:10;" d="M592.378,249.06
									c0,0,0.497,18.525,17.259,18.312"/>
								
									<line style="fill:none;stroke:#16004D;stroke-linecap:round;stroke-miterlimit:10;" x1="594.786" y1="389.811" x2="599.164" y2="264.06"/>
								
									<line style="fill:none;stroke:#16004D;stroke-linecap:round;stroke-miterlimit:10;" x1="612.778" y1="390.246" x2="574.112" y2="389.376"/>
							</g>
						</g>
					</g>
					<g>
						<g>
							<path style="fill:#F6C8A6;" d="M495.497,150.013l-13.865-18.851c0,0-2.599-0.087-4.258-2.429
								c-1.659-2.341-2.161-4.904-1.03-6.022c1.131-1.118,1.713-0.857,1.713-0.857s0.643-0.101,0.843-1.087
								c0.2-0.986,1.882-1.729,1.882-1.729l0.849,0.076c0,0,0.333-0.024,0.594-1.025c0.261-1.001,2.1-1.721,2.1-1.721h0.76
								c0,0-3.322-7.172-3.454-9.624c-0.132-2.453,2.019-4.39,4.343-1.595c2.324,2.795,5.542,9.942,5.542,9.942
								s2.889-0.904,4.993,1.859c2.105,2.763,8.997,14.047,8.997,14.047l3.693,8.912L495.497,150.013z"/>
							<g>
								<path style="fill:none;stroke:#EF8576;stroke-width:0.75;stroke-linecap:round;stroke-miterlimit:10;" d="M493.658,120.167
									c0,0-3.227,2.531-5.932,2.645c-2.706,0.114-3.567-2.451-1.906-4.013c1.661-1.563,6.119-4.871,8.678-3.751
									c2.559,1.12,12.717,17.236,13.917,22.915"/>
								<path style="fill:none;stroke:#EF8576;stroke-width:0.75;stroke-linecap:round;stroke-miterlimit:10;" d="M490.379,122.511
									c0,0,1.239,1.909-0.36,3.382c-1.599,1.472-3.559,0.186-5.478-2.07c-1.92-2.256-3.161-5.33-1.62-6.792
									c1.54-1.463,3.418-0.343,4.019,0.457"/>
								<path style="fill:none;stroke:#EF8576;stroke-width:0.75;stroke-linecap:round;stroke-miterlimit:10;" d="M486.938,126.221
									c0,0,0.647,2.323-1.783,3.194c-2.43,0.871-4.969-2.411-5.791-4.65c-0.823-2.239-1.11-4.558,0.754-5.485
									c1.515-0.754,2.164,0.169,2.164,0.169"/>
								<path style="fill:none;stroke:#EF8576;stroke-width:0.75;stroke-linecap:round;stroke-miterlimit:10;" d="M483.044,129.559
									c0,0,0.03,1.644-2.076,1.678c-2.106,0.033-5.554-3.912-5.323-6.525c0.231-2.613,2.15-3.24,2.87-2.86"/>
							</g>
						</g>
						<g>
							<polygon style="fill:#FFFFFF;stroke:#6FBBEF;stroke-miterlimit:10;" points="493.323,148.92 508.856,136.496 
								515.853,145.041 495.937,159.525 							"/>
							<g>
								<path style="fill:#EB3341;" d="M514.768,139.841l-23.92,18.756c0,0,5.449,42.088,32.749,53.676
									c27.3,11.588,47.987,0.884,51.827-16.265c3.84-17.149,10.527-38.646,10.527-38.646s-20.175,12.586-37.639,8.617
									C530.849,162.01,514.768,139.841,514.768,139.841z"/>
								<g>
									<path style="fill:#FFFFFF;" d="M514.768,139.841l-23.92,18.757c0,0,0.497,3.827,1.936,9.488l28.616-20.346
										C517.286,143.307,514.768,139.841,514.768,139.841z"/>
									<g>
										<path style="fill:#16004D;" d="M511.019,142.781c1.704,2.048,4.147,5.03,6.397,7.791l0.802-0.57
											c-1.872-2.298-4.533-5.553-6.426-7.827L511.019,142.781z"/>
										<polygon style="fill:#16004D;" points="497.989,152.998 497.198,153.618 501.296,162.033 502.107,161.457 										"/>
										<polygon style="fill:#16004D;" points="496.967,165.111 493.65,156.4 492.841,157.035 496.14,165.699 										"/>
										<polygon style="fill:#16004D;" points="507.312,145.688 506.538,146.294 512.445,154.106 513.245,153.537 										"/>
										<polygon style="fill:#16004D;" points="501.714,150.077 506.462,158.36 507.266,157.788 502.494,149.465 										"/>
									</g>
								</g>
								<path style="fill:none;stroke:#16004D;stroke-linecap:round;stroke-miterlimit:10;" d="M585.951,157.363
									c0,0-20.175,12.586-37.639,8.617c-17.464-3.969-33.544-26.138-33.544-26.138l-23.92,18.756"/>
							</g>
						</g>
					</g>
				</g>
				<g>
					<path style="fill:#EB3341;" d="M586.916,154.731c0,0-10.578,4.794-19.185,18.503c-6.326,10.077-18.327,50.394-14.328,84.982
						l79.341,1.477l-6.148-70.142l-25.002-34.82H586.916z"/>
					<g>
						<path style="fill:#FFFFFF;" d="M553.404,258.216l79.341,1.477l-1.061-12.103l-79.05-1.513
							C552.703,250.163,552.943,254.228,553.404,258.216z"/>
						<g>
							<polygon style="fill:#16004D;" points="576.925,246.543 575.943,246.524 575.943,258.636 576.925,258.654 							"/>
							<polygon style="fill:#16004D;" points="584.274,246.684 583.292,246.665 583.013,258.768 583.995,258.786 							"/>
							<polygon style="fill:#16004D;" points="590.419,246.801 589.437,246.782 589.437,258.887 590.419,258.905 							"/>
							<polygon style="fill:#16004D;" points="563.352,246.283 562.367,246.264 563.081,258.397 564.065,258.415 							"/>
							<path style="fill:#16004D;" d="M557.014,258.284l0.984,0.018c-0.239-4.554-0.488-9.324-0.629-12.133l-0.984-0.019
								C556.532,249.068,556.792,254.055,557.014,258.284z"/>
							<polygon style="fill:#16004D;" points="570.019,246.411 569.037,246.392 568.871,258.504 569.853,258.523 							"/>
							<polygon style="fill:#16004D;" points="617.352,247.316 616.37,247.298 616.37,259.388 617.352,259.407 							"/>
							<polygon style="fill:#16004D;" points="622.532,247.416 621.551,247.397 621.609,259.486 622.591,259.504 							"/>
							<polygon style="fill:#16004D;" points="628.948,247.538 627.961,247.519 629.021,259.624 630.008,259.642 							"/>
							<polygon style="fill:#16004D;" points="611.546,247.205 610.564,247.187 610.564,259.28 611.546,259.299 							"/>
							<polygon style="fill:#16004D;" points="604.233,247.065 603.251,247.047 603.251,259.144 604.233,259.163 							"/>
							<polygon style="fill:#16004D;" points="596.788,246.923 595.805,246.904 596.183,259.013 597.166,259.031 							"/>
						</g>
					</g>
					<path style="fill:none;stroke:#16004D;stroke-miterlimit:10;" d="M586.916,154.731c0,0-10.578,4.794-19.185,18.503
						c-6.326,10.077-18.327,50.394-14.328,84.982l79.341,1.477l-6.148-70.142l-25.002-34.82H586.916z"/>
				</g>
				<g>
					<g>
						<g>
							<path style="fill:#F6C8A6;" d="M611.691,241.622c0,0-20.863-0.016-32.097-6.689c-11.234-6.672-1.526-9.766,0.978-9.699
								c2.504,0.067,29.986,1.59,29.986,1.59L611.691,241.622z"/>
							<g>
								<path style="fill:none;stroke:#EF8576;stroke-width:0.75;stroke-linecap:round;stroke-miterlimit:10;" d="M581.877,227.461
									c0,0,1.553,4.923,10.514,5.061"/>
								<path style="fill:none;stroke:#EF8576;stroke-width:0.75;stroke-linecap:round;stroke-miterlimit:10;" d="M576.434,228.486
									c0,0,0.404,4.081,11.361,6.447"/>
							</g>
						</g>
						<polygon style="fill:#FFFFFF;stroke:#6FBBEF;stroke-miterlimit:10;" points="614.91,224.075 608.949,225.448 609.923,243.111 
							619.958,244.155 						"/>
						<g>
							<path style="fill:#EB3341;" d="M601.595,154.731l13.315,39.124c0,0,15.313,11.82,20.973,18.994l-22.079,9.312l2.219,22.656
								c0,0,57.79,23.744,60.451-25.239C679.133,170.595,601.595,154.731,601.595,154.731z"/>
							<polygon style="fill:#FFFFFF;" points="616.022,244.817 625.516,247.873 622.686,218.415 613.804,222.161 							"/>
							<g>
								<polygon style="fill:#16004D;" points="614.96,228.932 623.623,228.165 623.529,227.187 614.375,227.997 614.955,233.916 
									624.099,233.116 624.005,232.138 615.351,232.896 								"/>
								<polygon style="fill:#16004D;" points="624.549,237.806 615.397,238.427 615.904,243.607 625.187,244.443 625.091,243.449 
									616.304,242.657 615.982,239.371 624.643,238.784 								"/>
								<polygon style="fill:#16004D;" points="614.035,224.525 623.074,222.457 622.98,221.472 613.939,223.54 								"/>
							</g>
							<g>
								<path style="fill:none;stroke:#16004D;stroke-linecap:round;stroke-miterlimit:10;" d="M650.68,206.608l-36.876,15.553
									l2.219,22.656c0,0,57.79,23.744,60.451-25.239c0.877-16.145-6.96-28.693-17.86-38.26"/>
								<path style="fill:none;stroke:#16004D;stroke-linecap:round;stroke-miterlimit:10;" d="M614.91,193.854
									c0,0,15.313,11.82,20.973,18.994"/>
							</g>
						</g>
					</g>
					<g>
						<g>
							<g>
								<path style="fill:#161522;" d="M531.659,229.555l43.594,0.08c4.525,0.008,6.865-3.504,5.226-7.844l-11.427-30.257
									c-1.639-4.34-6.637-7.865-11.162-7.874l-43.594-0.079c-4.525-0.008-6.865,3.503-5.226,7.844l11.427,30.257
									C522.136,226.022,527.134,229.547,531.659,229.555z"/>
								<path style="fill:none;stroke:#FFFFFF;stroke-miterlimit:10;" d="M536.009,204.206c0.839,3.154,4.075,5.716,7.227,5.721
									c3.153,0.006,5.028-2.547,4.189-5.7c-0.839-3.154-4.075-5.716-7.227-5.721C537.045,198.499,535.17,201.051,536.009,204.206z
									"/>
								<path style="fill:#161522;" d="M563.378,229.613l40.936,0.075c1.4,0.003,2.538-1.13,2.54-2.531l0.003-1.45
									c0.003-1.4-1.13-2.538-2.531-2.54l-40.937-0.075c-1.4-0.003-2.537,1.131-2.54,2.531l-0.003,1.45
									C560.844,228.473,561.978,229.611,563.378,229.613z"/>
							</g>
						</g>
					</g>
				</g>
				<g>
					<g>
						<g>
							<path style="fill:#F6C8A6;" d="M602.054,140.297c0.045-0.321,0.081-0.645,0.1-0.975l0.67-11.701
								c0.327-5.713-3.511-10.623-8.53-10.91l-7.548-0.432c-5.018-0.287-9.392,4.153-9.719,9.866l-0.67,11.701
								c-0.327,5.714,3.511,10.623,8.529,10.91l3.819,0.219l-0.065,4.643c-0.028,1.993,1.565,3.631,3.558,3.659l6.112,0.086
								c1.993,0.028,3.631-1.565,3.659-3.558C601.969,153.805,602.115,140.646,602.054,140.297z"/>
							<g>
								<path style="fill:#A66957;" d="M601.595,133.407c0,0-1.143-9.956-1.686-8.526c-0.774,2.04-1.355,13.545-3.644,14.428
									c-3.029,1.169-3.826-3.945-9.76-4.488c-5.934-0.543-10.145,1.736-10.742,4.116c-0.369,1.469-1.34,5.557,3.384,8.796
									c4.038,2.768,10.2,2.334,10.2,2.334s5.768-0.367,8.429-3.699C600.544,142.901,601.595,133.407,601.595,133.407z"/>
								<g>
									<g>
										<path style="fill:#020202;" d="M591.913,130.832c-0.054,0.94-0.859,1.658-1.799,1.604
											c-0.94-0.054-1.658-0.859-1.604-1.799c0.054-0.939,0.859-1.658,1.799-1.604
											C591.248,129.087,591.966,129.892,591.913,130.832z"/>
										<path style="fill:#020202;" d="M580.788,129.945c-0.046,0.802-0.733,1.415-1.535,1.369
											c-0.802-0.046-1.415-0.733-1.369-1.536c0.046-0.802,0.733-1.415,1.535-1.369
											C580.22,128.456,580.833,129.143,580.788,129.945z"/>
									</g>
									<g>
										<path style="fill:#FFFFFF;" d="M582.014,137c0,0,0.712,2.54,2.51,2.815c1.798,0.274,3.329-1.648,3.517-3.205L582.014,137z
											"/>
									</g>
									<g>
										<g>
											<path style="fill:#EF8576;" d="M583.598,128.685c-0.595,1.399-1.341,2.728-2.225,3.965
												c-0.131,0.183-0.004,0.516,0.224,0.551c0.623,0.096,1.246,0.193,1.869,0.289c0.2,0.031,0.403-0.051,0.461-0.262
												c0.049-0.178-0.061-0.43-0.262-0.461c-0.623-0.096-1.246-0.192-1.869-0.289c0.075,0.184,0.149,0.367,0.224,0.551
												c0.884-1.237,1.63-2.566,2.225-3.965c0.079-0.186,0.056-0.402-0.134-0.513
												C583.953,128.458,583.678,128.497,583.598,128.685L583.598,128.685z"/>
										</g>
									</g>
									<g>
										<g>
											<path style="fill:#7F4040;" d="M592.71,128.387c-0.562-0.326-1.162-0.588-1.781-0.781
												c-0.187-0.058-0.417,0.069-0.461,0.262c-0.046,0.204,0.061,0.399,0.262,0.461c0.147,0.046,0.293,0.096,0.438,0.15
												c0.068,0.025,0.135,0.051,0.201,0.078c0.015,0.006,0.139,0.056,0.053,0.021c0.033,0.014,0.066,0.028,0.099,0.043
												c0.278,0.123,0.548,0.261,0.811,0.413c0.17,0.099,0.418,0.045,0.513-0.134
												C592.94,128.721,592.892,128.492,592.71,128.387L592.71,128.387z"/>
										</g>
									</g>
									<g>
										<g>
											<path style="fill:#7F4040;" d="M580.324,126.876c-0.595-0.004-1.19,0.03-1.781,0.102
												c-0.194,0.024-0.385,0.155-0.375,0.375c0.008,0.183,0.166,0.4,0.375,0.375c0.591-0.072,1.185-0.106,1.781-0.102
												c0.196,0.001,0.384-0.173,0.375-0.375C580.69,127.047,580.534,126.877,580.324,126.876L580.324,126.876z"/>
										</g>
									</g>
								</g>
							</g>
							<path style="fill:#A66957;" d="M600.392,135.423l-0.869-9.245c0,0-27.033,4.669-28.128-10.122
								c-0.696-9.396,11.098-13.286,19.656-8.114c0,0,16.803-0.602,21.874,9.835c5.071,10.437,0.055,17.767-10.877,27.625
								l0.104-6.08L600.392,135.423z"/>
							<g>
								<path style="fill:#F6C8A6;" d="M611.571,136.831c-0.241,3.034-2.915,5.297-5.974,5.054
									c-3.059-0.243-5.343-2.899-5.103-5.933c0.24-3.034,2.915-5.297,5.974-5.054
									C609.527,131.141,611.812,133.797,611.571,136.831z"/>
								<g>
									<g>
										<path style="fill:#EF8576;" d="M603.405,136.896c0-0.032,0.003-0.065,0.005-0.097c0.002-0.033,0.005-0.066,0.008-0.1
											c0.005-0.051,0.028-0.193,0.006-0.061c0.047-0.281,0.103-0.557,0.197-0.827c0.013-0.036,0.026-0.073,0.04-0.109
											c0.008-0.02,0.065-0.156,0.022-0.057c0.037-0.084,0.075-0.166,0.118-0.247c0.042-0.079,0.087-0.156,0.136-0.232
											c0.023-0.036,0.048-0.072,0.073-0.107c0.014-0.02,0.029-0.039,0.043-0.059c0.015-0.021-0.039,0.044,0.014-0.017
											c0.063-0.072,0.124-0.144,0.192-0.21c0.037-0.036,0.074-0.071,0.113-0.104c0.016-0.014,0.032-0.027,0.047-0.04
											c0.079-0.067-0.061,0.043,0.023-0.019c0.083-0.061,0.169-0.117,0.259-0.167c0.044-0.025,0.089-0.048,0.134-0.07
											c0.026-0.012,0.052-0.024,0.078-0.036c0.024-0.011,0.021-0.009-0.009,0.004c0.022-0.009,0.044-0.017,0.066-0.025
											c0.59-0.205,1.171-0.208,1.811-0.09c0.199,0.037,0.404-0.055,0.461-0.262c0.05-0.182-0.062-0.424-0.262-0.461
											c-1.164-0.214-2.429-0.107-3.295,0.783c-0.536,0.55-0.847,1.299-0.969,2.05c-0.03,0.184-0.058,0.374-0.061,0.561
											C602.647,137.379,603.397,137.379,603.405,136.896L603.405,136.896z"/>
									</g>
								</g>
							</g>
						</g>
					</g>
					<g>
						<path style="fill:#EB3341;stroke:#16004D;stroke-miterlimit:10;" d="M598.779,156.187c0,1.331-2.351,2.41-5.252,2.41
							c-2.901,0-5.252-1.079-5.252-2.41s2.352-2.411,5.252-2.411C596.428,153.776,598.779,154.856,598.779,156.187z"/>
						<path style="fill:#FFFFFF;stroke:#6FBBEF;stroke-miterlimit:10;" d="M588.51,152.039c0,0,2.005,1.2,5.444,1.36
							c3.439,0.16,6.743-1.203,8.05-2.961l2.951,5.867l-9.535,4.906l-3.452-6.48l-4.573,5.546l-2.139-4.317
							C585.256,155.96,586.516,154.458,588.51,152.039z"/>
					</g>
				</g>
			</g>
			<g>
				<g>
					<path style="fill:#161522;" d="M37.065,456.287c5.97,0,11.941,0,17.911,0c16.102,0,32.204,0,48.306,0
						c23.873,0,47.746,0,71.618,0c29.126,0,58.252,0,87.377,0c31.79,0,63.579,0,95.369,0c32.307,0,64.614,0,96.922,0
						c29.918,0,59.836,0,89.754,0c25.373,0,50.746,0,76.12,0c18.242,0,36.485,0,54.727,0c8.619,0,17.249,0.124,25.867,0
						c0.377-0.005,0.754,0,1.131,0c1.609,0,1.611-2.5,0-2.5c-5.97,0-11.941,0-17.911,0c-16.102,0-32.204,0-48.306,0
						c-23.873,0-47.746,0-71.618,0c-29.126,0-58.252,0-87.377,0c-31.79,0-63.579,0-95.369,0c-32.307,0-64.615,0-96.922,0
						c-29.918,0-59.836,0-89.754,0c-25.373,0-50.746,0-76.12,0c-18.242,0-36.485,0-54.727,0c-8.619,0-17.249-0.124-25.868,0
						c-0.377,0.005-0.754,0-1.131,0C35.456,453.787,35.453,456.287,37.065,456.287L37.065,456.287z"/>
				</g>
			</g>
		</g>
	</g>
</g>
</svg>
