<svg width="38" height="38" viewBox="0 0 38 38" fill="none" xmlns="http://www.w3.org/2000/svg">
<path d="M16.0717 26.1899L9 19.1166L11.3567 16.7599L16.0717 21.4733L25.4983 12.0449L27.8567 14.4033L16.0717 26.1899Z" fill="#2E7EED"/>
<path fill-rule="evenodd" clip-rule="evenodd" d="M0.666687 19C0.666687 8.87496 8.87502 0.666626 19 0.666626C29.125 0.666626 37.3334 8.87496 37.3334 19C37.3334 29.125 29.125 37.3333 19 37.3333C8.87502 37.3333 0.666687 29.125 0.666687 19ZM19 34C17.0302 34 15.0797 33.612 13.2598 32.8582C11.4399 32.1043 9.7863 30.9994 8.39342 29.6066C7.00054 28.2137 5.89565 26.5601 5.14183 24.7402C4.38801 22.9203 4.00002 20.9698 4.00002 19C4.00002 17.0301 4.38801 15.0796 5.14183 13.2597C5.89565 11.4398 7.00054 9.78624 8.39342 8.39336C9.7863 7.00048 11.4399 5.89559 13.2598 5.14177C15.0797 4.38795 17.0302 3.99996 19 3.99996C22.9783 3.99996 26.7936 5.58031 29.6066 8.39336C32.4197 11.2064 34 15.0217 34 19C34 22.9782 32.4197 26.7935 29.6066 29.6066C26.7936 32.4196 22.9783 34 19 34Z" fill="#2E7EED"/>
</svg>
