<svg width="33" height="34" viewBox="0 0 33 34" fill="none" xmlns="http://www.w3.org/2000/svg">
<path d="M15 0.333374C14.6667 0.333374 14.3333 0.500041 14 0.666707L0.833333 8.00004C0.333333 8.33337 0 8.83337 0 9.50004V24.5C0 25.1667 0.333333 25.6667 0.833333 26L14 33.3334C14.3333 33.5 14.6667 33.6667 15 33.6667C15.3333 33.6667 15.6667 33.5 16 33.3334L17.5 32.5C17 31.5 16.8333 30.3334 16.6667 29.1667V18L26.6667 12.3334V18.6667C27.8333 18.6667 29 18.8334 30 19.1667V9.50004C30 8.83337 29.6667 8.33337 29.1667 8.00004L16 0.666707C15.6667 0.500041 15.3333 0.333374 15 0.333374ZM15 4.00004L25 9.50004L21.6667 11.3334L11.8333 5.66671L15 4.00004ZM8.5 7.50004L18.3333 13.3334L15 15.1667L5 9.50004L8.5 7.50004ZM3.33333 12.3334L13.3333 18V29.1667L3.33333 23.5V12.3334ZM30.5 23.3334L24.5 29.3334L21.8333 26.6667L20 28.6667L24.6667 33.6667L32.6667 25.6667L30.5 23.3334Z" fill="#2E7EED"/>
</svg>
