<svg width="38" height="28" viewBox="0 0 38 28" fill="none" xmlns="http://www.w3.org/2000/svg">
<path d="M2.33331 18.1667C2.33331 19.1516 2.52731 20.1269 2.90422 21.0368C3.28113 21.9468 3.83357 22.7736 4.53001 23.47C5.93654 24.8765 7.84419 25.6667 9.83331 25.6667H29.8333C31.3099 25.6694 32.7326 25.1119 33.8143 24.1069C34.8961 23.1018 35.5564 21.7239 35.6622 20.2511C35.7679 18.7782 35.3112 17.3201 34.3841 16.1709C33.4569 15.0216 32.1285 14.2667 30.6666 14.0584C30.6829 11.223 29.666 8.4787 27.8061 6.33852C25.9462 4.19835 23.3705 2.80877 20.5605 2.42955C17.7506 2.05033 14.8987 2.70742 12.5379 4.27798C10.1772 5.84855 8.46924 8.2251 7.73331 10.9634C6.1749 11.4179 4.80603 12.3658 3.83231 13.6647C2.85859 14.9636 2.33259 16.5434 2.33331 18.1667Z" stroke="#2E7EED" stroke-width="3" stroke-linejoin="round"/>
<path d="M15.6666 12.3334L22.3333 19M15.6666 19L22.3333 12.3334" stroke="#2E7EED" stroke-width="3" stroke-linecap="round" stroke-linejoin="round"/>
</svg>
