<svg width="32" height="38" viewBox="0 0 32 38" fill="none" xmlns="http://www.w3.org/2000/svg">
<path d="M16 0.25L30.005 3.3625C30.785 3.5375 31.34 4.2275 31.34 5.0275V22.05C31.34 23.7332 30.9245 25.3904 30.1304 26.8745C29.3362 28.3586 28.1879 29.6237 26.7875 30.5575L16 37.75L5.21247 30.5575C3.81202 29.6237 2.66376 28.3586 1.8696 26.8745C1.07543 25.3904 0.659933 23.7332 0.659973 22.05V5.025C0.659973 4.2275 1.21497 3.535 1.99497 3.3625L16 0.25ZM16 3.7425L4.06747 6.3925V22.05C4.06747 24.33 5.20747 26.4575 7.10497 27.7225L16 33.65L24.895 27.72C25.829 27.0969 26.5949 26.253 27.1248 25.2631C27.6546 24.2732 27.932 23.1678 27.9325 22.045V6.3975L16 3.7425ZM16 10.475C16.7498 10.4756 17.4786 10.7234 18.0734 11.18C18.6682 11.6367 19.096 12.2766 19.2904 13.0008C19.4848 13.725 19.4351 14.4932 19.149 15.1863C18.8628 15.8794 18.3562 16.4589 17.7075 16.835L17.705 24.11H14.295V16.835C13.647 16.4591 13.1409 15.8802 12.8551 15.1878C12.5692 14.4954 12.5195 13.728 12.7136 13.0045C12.9077 12.281 13.3349 11.6416 13.9289 11.1853C14.523 10.7289 15.2509 10.481 16 10.48V10.475Z" fill="#2E7EED"/>
</svg>
